<svg xmlns="http://www.w3.org/2000/svg" xmlns:xlink="http://www.w3.org/1999/xlink" viewBox="0 0 373.39 181.31">
	<defs>
		<style>.cls-1{fill:none;}.cls-2{clip-path:url(#clip-path);}.cls-3{fill:#e6e7e8;}.cls-17,.cls-18,.cls-19,.cls-20,.cls-21,.cls-23,.cls-24,.cls-3,.cls-4{fill-rule:evenodd;}.cls-4{fill:#f3c844;}.cls-5{clip-path:url(#clip-path-2);}.cls-6{fill:url(#linear-gradient);}.cls-7{clip-path:url(#clip-path-3);}.cls-8{fill:url(#linear-gradient-2);}.cls-9{clip-path:url(#clip-path-4);}.cls-10{fill:url(#linear-gradient-3);}.cls-11{clip-path:url(#clip-path-5);}.cls-12{fill:url(#linear-gradient-4);}.cls-13{clip-path:url(#clip-path-6);}.cls-14{fill:url(#linear-gradient-5);}.cls-15{clip-path:url(#clip-path-7);}.cls-16{fill:url(#linear-gradient-6);}.cls-17{fill:#4d85bc;}.cls-18{fill:#5bab4f;}.cls-19{fill:#36adbc;}.cls-20{fill:#cb6da6;}.cls-21{fill:#cc6328;}.cls-22{fill:#a7a9ac;}.cls-23{fill:#104572;}.cls-24,.cls-25{fill:#231f20;}.cls-25{font-size:18px;font-family:Roboto Condensed;}</style>
		<clipPath id="clip-path" transform="translate(-57.07 -33.72)">
			<rect class="cls-1" width="470" height="249"/>
		</clipPath>
		<clipPath id="clip-path-2" transform="translate(-57.07 -33.72)">
			<path class="cls-1" d="M385,88.6a12.69,12.69,0,0,1-.52,2.3,13.77,13.77,0,0,1-3.47,5.67c-.05-.15-.09-.29-.14-.43l-.41.79c14.54,2,28.8,2.41,41.2-5a54.24,54.24,0,0,0-5.4-19.43Z"/>
		</clipPath>
		<linearGradient id="linear-gradient" x1="-0.01" y1="248.96" x2="0.99" y2="248.96" gradientTransform="matrix(0, -45.79, -45.79, 0, 11800.61, 111.14)" gradientUnits="userSpaceOnUse">
			<stop offset="0" stop-color="#36adbc"/>
			<stop offset="1" stop-color="#fff"/>
		</linearGradient>
		<clipPath id="clip-path-3" transform="translate(-57.07 -33.72)">
			<path class="cls-1" d="M383.27,79.67a13.86,13.86,0,0,1,1.76,9c12.32-2.76,23-7.72,31.29-16.11A54.31,54.31,0,0,0,405.19,57.4Z"/>
		</clipPath>
		<linearGradient id="linear-gradient-2" y1="248.98" x2="1" y2="248.98" gradientTransform="matrix(0, -55.21, -55.21, 0, 14145.72, 99.27)" gradientUnits="userSpaceOnUse">
			<stop offset="0" stop-color="#cb6da6"/>
			<stop offset="1" stop-color="#fff"/>
		</linearGradient>
		<clipPath id="clip-path-4" transform="translate(-57.07 -33.72)">
			<path class="cls-1" d="M375.93,73.62a13.83,13.83,0,0,1,7.34,6.06c9.36-6,17.43-12.84,21.94-22.25a53.48,53.48,0,0,0-19.64-12Z"/>
		</clipPath>
		<linearGradient id="linear-gradient-3" y1="248.97" x2="1" y2="248.97" gradientTransform="matrix(0, -50.72, -50.72, 0, 13018.47, 85.88)" gradientUnits="userSpaceOnUse">
			<stop offset="0" stop-color="#cc6328"/>
			<stop offset="1" stop-color="#fff"/>
		</linearGradient>
		<clipPath id="clip-path-5" transform="translate(-57.07 -33.72)">
			<path class="cls-1" d="M362.71,42.73l3.59,31a13.82,13.82,0,0,1,9.21-.28l.57.19a45.48,45.48,0,0,0,9.49-28.22,54.19,54.19,0,0,0-17.65-3c-1.74,0-3.47.08-5.21.25"/>
		</clipPath>
		<linearGradient id="linear-gradient-4" y1="249.04" x2="1" y2="249.04" gradientTransform="matrix(0, -42.52, -42.52, 0, 10964.43, 78.1)" gradientUnits="userSpaceOnUse">
			<stop offset="0" stop-color="#f3c844"/>
			<stop offset="1" stop-color="#fff"/>
		</linearGradient>
		<clipPath id="clip-path-6" transform="translate(-57.07 -33.72)">
			<path class="cls-1" d="M344.6,47.82l14.74,31.87a13.78,13.78,0,0,1,7.05-6,36.27,36.27,0,0,0-3.64-31,53.82,53.82,0,0,0-18.15,5.09"/>
		</clipPath>
		<linearGradient id="linear-gradient-5" x1="0.01" y1="249.04" x2="1.01" y2="249.04" gradientTransform="matrix(0, -46.35, -46.35, 0, 11900.13, 86)" gradientUnits="userSpaceOnUse">
			<stop offset="0" stop-color="#5bab4f"/>
			<stop offset="1" stop-color="#fff"/>
		</linearGradient>
		<clipPath id="clip-path-7" transform="translate(-57.07 -33.72)">
			<path class="cls-1" d="M357.81,89l0,.13,0-.2ZM328.38,59.78c13.32,1.16,24.79,15,29.12,28.22a13.9,13.9,0,0,1,.59-5.51,14.1,14.1,0,0,1,1.48-3.19c1-11.55-5-25.16-14.93-31.5a54.2,54.2,0,0,0-16.26,12"/>
		</clipPath>
		<linearGradient id="linear-gradient-6" y1="249" x2="1" y2="249" gradientTransform="matrix(0, -127.84, -127.84, 0, 32177.76, 136.23)" gradientUnits="userSpaceOnUse">
			<stop offset="0" stop-color="#4d85bc"/>
			<stop offset="1" stop-color="#fff"/>
		</linearGradient>
	</defs>
	<g id="Layer_2" data-name="Layer 2">
		<g id="Layer_1-2" data-name="Layer 1">
			<g class="cls-2">
				<path class="cls-3" d="M325.84,56.83c-2.53-9.13,7.75-18,16.25-11.74a68.34,68.34,0,0,0-16.25,11.74" transform="translate(-57.07 -33.72)"/>
				<path class="cls-4" d="M364.6,39.7c4.27-8.46,17.85-8.14,19.92,2.24A68,68,0,0,0,364.6,39.7" transform="translate(-57.07 -33.72)"/>
			</g>
			<g class="cls-5">
				<rect class="cls-6" x="377.26" y="66.57" width="47.68" height="38.75" transform="translate(-63.2 101.54) rotate(-19)"/>
			</g>
			<g class="cls-7">
				<rect class="cls-8" x="379.24" y="53.06" width="41.1" height="39.97" transform="matrix(0.95, -0.31, 0.31, 0.95, -60.08, 93.39)"/>
			</g>
			<g class="cls-9">
				<rect class="cls-10" x="371.16" y="41.62" width="38.83" height="41.9" transform="translate(-56.16 96.84) rotate(-19)"/>
			</g>
			<g class="cls-11">
				<rect class="cls-12" x="358.44" y="39.71" width="31.45" height="36.82" transform="translate(-56.72 84.75) rotate(-18)"/>
			</g>
			<g class="cls-13">
				<rect class="cls-14" x="339.27" y="39.65" width="35.8" height="43.12" transform="translate(-57.54 85.9) rotate(-19)"/>
			</g>
			<g class="cls-15">
				<rect class="cls-16" x="322.79" y="43.83" width="43.42" height="49.26" transform="translate(-61.37 76.08) rotate(-18)"/>
			</g>
			<g class="cls-2">
				<path class="cls-17" d="M325.84,56.83c-2.53-9.13,7.75-18,16.25-11.74a68.34,68.34,0,0,0-16.25,11.74" transform="translate(-57.07 -33.72)"/>
				<path class="cls-18" d="M342.93,44.83c1-9.24,13.4-13.91,19.21-5.26a58.3,58.3,0,0,0-19.21,5.26" transform="translate(-57.07 -33.72)"/>
				<path class="cls-19" d="M425.27,90.33c6.64-5.77,4.13-17.92-5.61-18.68a58.15,58.15,0,0,1,5.61,18.68" transform="translate(-57.07 -33.72)"/>
				<path class="cls-20" d="M418.93,70.22c4.09-7.71-2.46-18.14-11.86-15.44a58.44,58.44,0,0,1,11.86,15.44" transform="translate(-57.07 -33.72)"/>
				<path class="cls-21" d="M404.76,52.75c1.13-8.93-9.3-16.4-17.09-9.85a57.93,57.93,0,0,1,17.09,9.85" transform="translate(-57.07 -33.72)"/>
				<rect class="cls-22" x="273.79" y="130.94" width="2.54" height="12.59"/>
				<path class="cls-22" d="M343.72,177.25h-2.41v-4.66a7.27,7.27,0,0,0-.16-1.91,1.36,1.36,0,0,0-.5-.67,1.43,1.43,0,0,0-.84-.24,2,2,0,0,0-1.13.34,1.77,1.77,0,0,0-.68.91,8.11,8.11,0,0,0-.18,2.1v4.13h-2.41v-9.12h2.23v1.34a3.73,3.73,0,0,1,4.47-1.26,2.38,2.38,0,0,1,1,.74,2.41,2.41,0,0,1,.47,1,7.39,7.39,0,0,1,.14,1.62Z" transform="translate(-57.07 -33.72)"/>
				<path class="cls-22" d="M350,168.13v1.92h-1.64v3.68a10,10,0,0,0,0,1.3.5.5,0,0,0,.22.3.68.68,0,0,0,.4.13,3.07,3.07,0,0,0,1-.24l.2,1.87a4.78,4.78,0,0,1-1.91.36,3.13,3.13,0,0,1-1.17-.21,1.75,1.75,0,0,1-.77-.57,2.25,2.25,0,0,1-.34-.94,11.81,11.81,0,0,1-.08-1.7v-4h-1.1v-1.92h1.1v-1.81l2.43-1.41v3.22Z" transform="translate(-57.07 -33.72)"/>
				<path class="cls-22" d="M356.54,174.35l2.4.4a4,4,0,0,1-1.46,2,4.32,4.32,0,0,1-2.51.69,4.07,4.07,0,0,1-3.52-1.55,5.23,5.23,0,0,1-.9-3.14,5,5,0,0,1,1.19-3.55,3.86,3.86,0,0,1,3-1.29,4,4,0,0,1,3.21,1.35,5.92,5.92,0,0,1,1.13,4.11H353a2.4,2.4,0,0,0,.59,1.67,1.81,1.81,0,0,0,1.39.6,1.45,1.45,0,0,0,.95-.31,1.92,1.92,0,0,0,.59-1m.13-2.44a2.33,2.33,0,0,0-.54-1.6,1.66,1.66,0,0,0-1.25-.54,1.64,1.64,0,0,0-1.3.58,2.16,2.16,0,0,0-.51,1.56Z" transform="translate(-57.07 -33.72)"/>
				<path class="cls-22" d="M363,177.25h-2.41v-9.12h2.24v1.3a3.84,3.84,0,0,1,1-1.22,1.91,1.91,0,0,1,1-.29,3.11,3.11,0,0,1,1.59.46l-.75,2.1a2.11,2.11,0,0,0-1.13-.39,1.31,1.31,0,0,0-.86.28,1.81,1.81,0,0,0-.55,1,13.68,13.68,0,0,0-.21,3.05Z" transform="translate(-57.07 -33.72)"/>
				<path class="cls-22" d="M375.41,177.25H373v-4.66a6.84,6.84,0,0,0-.16-1.91,1.36,1.36,0,0,0-.5-.67,1.43,1.43,0,0,0-.84-.24,1.9,1.9,0,0,0-1.12.34,1.72,1.72,0,0,0-.68.91,7.57,7.57,0,0,0-.19,2.1v4.13H367.1v-9.12h2.24v1.34a3.65,3.65,0,0,1,3-1.55,3.59,3.59,0,0,1,1.46.29,2.38,2.38,0,0,1,1,.74,2.56,2.56,0,0,1,.48,1,7.5,7.5,0,0,1,.13,1.62Z" transform="translate(-57.07 -33.72)"/>
				<path class="cls-22" d="M379.28,170.91l-2.19-.39a3.35,3.35,0,0,1,1.27-2,4.67,4.67,0,0,1,2.68-.64,5.62,5.62,0,0,1,2.4.39,2.29,2.29,0,0,1,1.11,1,4.86,4.86,0,0,1,.33,2.16l0,2.81A9.62,9.62,0,0,0,385,176a5.13,5.13,0,0,0,.43,1.22H383c-.06-.16-.14-.4-.23-.71,0-.15-.07-.24-.08-.29a4.47,4.47,0,0,1-1.33.9,3.79,3.79,0,0,1-1.5.3,3.1,3.1,0,0,1-2.22-.76,2.73,2.73,0,0,1-.44-3.31,2.45,2.45,0,0,1,1-.93,8.52,8.52,0,0,1,1.92-.56,13.07,13.07,0,0,0,2.34-.59v-.24a1.22,1.22,0,0,0-.34-1,2,2,0,0,0-1.29-.3,1.73,1.73,0,0,0-1,.25,1.79,1.79,0,0,0-.58.89m3.22,2a14,14,0,0,1-1.46.37,4.36,4.36,0,0,0-1.32.42,1,1,0,0,0-.47.85,1.17,1.17,0,0,0,.38.87,1.3,1.3,0,0,0,1,.37,2.13,2.13,0,0,0,1.25-.42,1.53,1.53,0,0,0,.57-.8,4.53,4.53,0,0,0,.09-1.18Z" transform="translate(-57.07 -33.72)"/>
				<path class="cls-22" d="M391.05,168.13v1.92h-1.64v3.68a10,10,0,0,0,0,1.3.54.54,0,0,0,.22.3.68.68,0,0,0,.4.13,3.07,3.07,0,0,0,1-.24l.2,1.87a4.78,4.78,0,0,1-1.91.36,3.13,3.13,0,0,1-1.17-.21,1.75,1.75,0,0,1-.77-.57,2.25,2.25,0,0,1-.34-.94A11.81,11.81,0,0,1,387,174v-4h-1.1v-1.92H387v-1.81l2.43-1.41v3.22Z" transform="translate(-57.07 -33.72)"/>
				<path class="cls-22" d="M392.35,164.66h2.41v2.23h-2.41Zm0,3.47h2.41v9.12h-2.41Z" transform="translate(-57.07 -33.72)"/>
				<path class="cls-22" d="M396.29,172.56a5,5,0,0,1,.59-2.33,4.08,4.08,0,0,1,1.68-1.71,5,5,0,0,1,2.43-.6,4.53,4.53,0,0,1,3.39,1.35,5.05,5.05,0,0,1,0,6.82,4.5,4.5,0,0,1-3.36,1.36,5.29,5.29,0,0,1-2.4-.56,3.91,3.91,0,0,1-1.73-1.66,5.6,5.6,0,0,1-.59-2.67m2.47.13a3,3,0,0,0,.65,2.08,2.1,2.1,0,0,0,3.17,0,3.05,3.05,0,0,0,.64-2.1,3,3,0,0,0-.64-2.06,2.1,2.1,0,0,0-3.17,0,3,3,0,0,0-.65,2.08" transform="translate(-57.07 -33.72)"/>
				<path class="cls-22" d="M415.5,177.25h-2.41v-4.66a7.43,7.43,0,0,0-.15-1.91,1.36,1.36,0,0,0-1.34-.91,1.93,1.93,0,0,0-1.13.34,1.72,1.72,0,0,0-.68.91,8,8,0,0,0-.19,2.1v4.13h-2.41v-9.12h2.24v1.34a3.73,3.73,0,0,1,4.47-1.26,2.45,2.45,0,0,1,1,.74,2.68,2.68,0,0,1,.47,1,7.5,7.5,0,0,1,.13,1.62Z" transform="translate(-57.07 -33.72)"/>
				<path class="cls-22" d="M419.37,170.91l-2.19-.39a3.4,3.4,0,0,1,1.27-2,4.69,4.69,0,0,1,2.68-.64,5.7,5.7,0,0,1,2.41.39,2.38,2.38,0,0,1,1.11,1,5,5,0,0,1,.32,2.16l0,2.81a9.81,9.81,0,0,0,.11,1.78,5.69,5.69,0,0,0,.44,1.22h-2.39a6.68,6.68,0,0,1-.23-.71,2.74,2.74,0,0,0-.09-.29,4.31,4.31,0,0,1-1.32.9,3.8,3.8,0,0,1-1.51.3,3.09,3.09,0,0,1-2.21-.76,2.51,2.51,0,0,1-.82-1.93,2.64,2.64,0,0,1,.37-1.38,2.48,2.48,0,0,1,1-.93,8.2,8.2,0,0,1,1.92-.56,13.32,13.32,0,0,0,2.34-.59v-.24a1.22,1.22,0,0,0-.34-1,2,2,0,0,0-1.3-.3,1.7,1.7,0,0,0-1,.25,1.74,1.74,0,0,0-.59.89m3.23,2a15.12,15.12,0,0,1-1.47.37,4.27,4.27,0,0,0-1.31.42,1,1,0,0,0-.48.85,1.17,1.17,0,0,0,.38.87,1.31,1.31,0,0,0,1,.37,2.11,2.11,0,0,0,1.25-.42,1.48,1.48,0,0,0,.57-.8,4.41,4.41,0,0,0,.1-1.18Z" transform="translate(-57.07 -33.72)"/>
				<rect class="cls-22" x="369.9" y="130.94" width="2.41" height="12.59"/>
				<path class="cls-22" d="M272.2,190l2.46.78a5,5,0,0,1-5.23,4.07,5.43,5.43,0,0,1-4.12-1.72,6.57,6.57,0,0,1-1.61-4.68,6.89,6.89,0,0,1,1.62-4.88,5.56,5.56,0,0,1,4.27-1.74,5.23,5.23,0,0,1,3.75,1.37,4.89,4.89,0,0,1,1.29,2.32l-2.52.6a2.58,2.58,0,0,0-.93-1.55,2.66,2.66,0,0,0-1.72-.57,2.87,2.87,0,0,0-2.27,1,4.92,4.92,0,0,0-.87,3.25,5.29,5.29,0,0,0,.85,3.4,2.8,2.8,0,0,0,2.24,1,2.56,2.56,0,0,0,1.74-.65,3.73,3.73,0,0,0,1.05-2" transform="translate(-57.07 -33.72)"/>
				<path class="cls-22" d="M275.88,189.92a4.86,4.86,0,0,1,.6-2.32,4,4,0,0,1,1.68-1.72,5,5,0,0,1,2.42-.59,4.57,4.57,0,0,1,3.39,1.34,4.63,4.63,0,0,1,1.33,3.4,4.71,4.71,0,0,1-1.34,3.43,4.5,4.5,0,0,1-3.36,1.36,5.26,5.26,0,0,1-2.39-.57,3.86,3.86,0,0,1-1.73-1.66,5.49,5.49,0,0,1-.6-2.67m2.48.13a3,3,0,0,0,.64,2.08,2.05,2.05,0,0,0,1.59.72,2,2,0,0,0,1.58-.72,3.05,3.05,0,0,0,.65-2.1,3,3,0,0,0-.65-2.06,2,2,0,0,0-1.58-.72A2.05,2.05,0,0,0,279,188a3,3,0,0,0-.64,2.08" transform="translate(-57.07 -33.72)"/>
				<path class="cls-22" d="M295.1,194.61h-2.41V190a6.79,6.79,0,0,0-.16-1.91,1.38,1.38,0,0,0-.5-.68,1.51,1.51,0,0,0-.84-.24,1.91,1.91,0,0,0-1.12.35,1.79,1.79,0,0,0-.69.91,8,8,0,0,0-.18,2.09v4.13h-2.41V185.5H289v1.34a3.75,3.75,0,0,1,4.46-1.27,2.47,2.47,0,0,1,1,.74,2.53,2.53,0,0,1,.47,1,6.81,6.81,0,0,1,.14,1.62Z" transform="translate(-57.07 -33.72)"/>
				<path class="cls-22" d="M296.31,192l2.43-.37a1.77,1.77,0,0,0,.62,1.07,2.16,2.16,0,0,0,1.32.37,2.36,2.36,0,0,0,1.41-.35.74.74,0,0,0,.32-.64.65.65,0,0,0-.17-.46,1.91,1.91,0,0,0-.81-.31,13.23,13.23,0,0,1-3.7-1.18,2.36,2.36,0,0,1-1.08-2.06,2.51,2.51,0,0,1,.93-2,4.4,4.4,0,0,1,2.91-.81,5,5,0,0,1,2.78.61,3.09,3.09,0,0,1,1.25,1.8l-2.27.42a1.37,1.37,0,0,0-.56-.81,2,2,0,0,0-1.16-.29,2.61,2.61,0,0,0-1.37.27.58.58,0,0,0-.27.49.52.52,0,0,0,.24.43,8.82,8.82,0,0,0,2.26.69,6.62,6.62,0,0,1,2.69,1.07,2.24,2.24,0,0,1,.75,1.79,2.75,2.75,0,0,1-1.05,2.16,4.64,4.64,0,0,1-3.1.9,5.06,5.06,0,0,1-2.95-.76,3.52,3.52,0,0,1-1.42-2.05" transform="translate(-57.07 -33.72)"/>
				<path class="cls-22" d="M306,189.92a5,5,0,0,1,.59-2.32,4.07,4.07,0,0,1,1.69-1.72,5,5,0,0,1,2.42-.59,4.57,4.57,0,0,1,3.39,1.34,4.63,4.63,0,0,1,1.33,3.4,4.71,4.71,0,0,1-1.34,3.43,4.5,4.5,0,0,1-3.36,1.36,5.26,5.26,0,0,1-2.39-.57,3.94,3.94,0,0,1-1.74-1.66,5.6,5.6,0,0,1-.59-2.67m2.48.13a3,3,0,0,0,.64,2.08,2.05,2.05,0,0,0,1.59.72,2,2,0,0,0,1.58-.72,3.05,3.05,0,0,0,.65-2.1,3,3,0,0,0-.65-2.06,2,2,0,0,0-1.58-.72,2.05,2.05,0,0,0-1.59.72,3,3,0,0,0-.64,2.08" transform="translate(-57.07 -33.72)"/>
				<path class="cls-22" d="M319.23,194.61h-2.41V185.5h2.24v1.29a3.9,3.9,0,0,1,1-1.21,2,2,0,0,1,1.05-.29,3.09,3.09,0,0,1,1.59.45l-.75,2.11a2,2,0,0,0-1.13-.4,1.31,1.31,0,0,0-.86.28,1.92,1.92,0,0,0-.56,1,14.77,14.77,0,0,0-.2,3.06Z" transform="translate(-57.07 -33.72)"/>
				<path class="cls-22" d="M327.56,185.5v1.92h-1.64v3.67a9.93,9.93,0,0,0,0,1.3.58.58,0,0,0,.22.31.68.68,0,0,0,.4.12,3.29,3.29,0,0,0,1-.23l.2,1.87a4.78,4.78,0,0,1-1.91.36,3.13,3.13,0,0,1-1.17-.22,1.81,1.81,0,0,1-.77-.57,2.2,2.2,0,0,1-.34-.94,12.34,12.34,0,0,1-.07-1.7v-4h-1.11V185.5h1.11v-1.82l2.42-1.41v3.23Z" transform="translate(-57.07 -33.72)"/>
				<path class="cls-22" d="M328.86,182h2.41v2.23h-2.41Zm0,3.47h2.41v9.11h-2.41Z" transform="translate(-57.07 -33.72)"/>
				<path class="cls-22" d="M339.36,194.61v-1.36a3.56,3.56,0,0,1-1.31,1.15,3.66,3.66,0,0,1-1.71.42,3.47,3.47,0,0,1-1.65-.4,2.39,2.39,0,0,1-1.06-1.14,5.19,5.19,0,0,1-.32-2V185.5h2.41v4.18a11.61,11.61,0,0,0,.13,2.36,1.28,1.28,0,0,0,.49.69,1.46,1.46,0,0,0,.89.25,1.87,1.87,0,0,0,1.11-.34,1.7,1.7,0,0,0,.67-.84,9.79,9.79,0,0,0,.18-2.46V185.5h2.41v9.11Z" transform="translate(-57.07 -33.72)"/>
				<path class="cls-22" d="M343.54,185.5h2.22v1.24a3.59,3.59,0,0,1,2.85-1.45,3,3,0,0,1,1.51.36,2.66,2.66,0,0,1,1.06,1.09,4.2,4.2,0,0,1,1.3-1.09,3.18,3.18,0,0,1,1.49-.36,3.3,3.3,0,0,1,1.69.41,2.48,2.48,0,0,1,1,1.19,5.11,5.11,0,0,1,.25,1.89v5.83h-2.41V189.4a3.81,3.81,0,0,0-.25-1.75,1.15,1.15,0,0,0-1-.52,1.66,1.66,0,0,0-.95.31,1.77,1.77,0,0,0-.65.91,6.57,6.57,0,0,0-.2,1.88v4.38h-2.41v-5a6.73,6.73,0,0,0-.13-1.72,1.09,1.09,0,0,0-.4-.58,1.29,1.29,0,0,0-.73-.19,1.67,1.67,0,0,0-1,.31,1.59,1.59,0,0,0-.65.86,6.84,6.84,0,0,0-.19,1.88v4.43h-2.41Z" transform="translate(-57.07 -33.72)"/>
				<path class="cls-22" d="M363.05,185.5h1.34v-.69a4.66,4.66,0,0,1,.24-1.72,2,2,0,0,1,.9-.92,3.47,3.47,0,0,1,1.67-.36,6.54,6.54,0,0,1,2,.31l-.32,1.68a4.86,4.86,0,0,0-1.11-.13,1,1,0,0,0-.75.24,1.43,1.43,0,0,0-.23.94v.65h1.81v1.89H366.8v7.22h-2.41v-7.22h-1.34Z" transform="translate(-57.07 -33.72)"/>
				<path class="cls-22" d="M369,189.92a5,5,0,0,1,.59-2.32,4.1,4.1,0,0,1,1.68-1.72,5,5,0,0,1,2.43-.59,4.57,4.57,0,0,1,3.39,1.34,5.06,5.06,0,0,1,0,6.83,4.5,4.5,0,0,1-3.36,1.36,5.3,5.3,0,0,1-2.4-.57,3.91,3.91,0,0,1-1.73-1.66,5.6,5.6,0,0,1-.59-2.67m2.47.13a3,3,0,0,0,.65,2.08,2.1,2.1,0,0,0,3.17,0A3.05,3.05,0,0,0,376,190a3,3,0,0,0-.64-2.06,2.1,2.1,0,0,0-3.17,0,3,3,0,0,0-.65,2.08" transform="translate(-57.07 -33.72)"/>
				<path class="cls-22" d="M382.25,194.61h-2.41V185.5h2.24v1.29a3.9,3.9,0,0,1,1-1.21,1.94,1.94,0,0,1,1-.29,3.07,3.07,0,0,1,1.59.45l-.74,2.11a2.1,2.1,0,0,0-1.14-.4,1.33,1.33,0,0,0-.86.28,1.91,1.91,0,0,0-.55,1,14.77,14.77,0,0,0-.2,3.06Z" transform="translate(-57.07 -33.72)"/>
				<path class="cls-22" d="M401.76,194.61H399l-1.1-2.86h-5l-1,2.86h-2.7L394,182h2.69Zm-4.68-5L395.34,185l-1.7,4.67Z" transform="translate(-57.07 -33.72)"/>
				<path class="cls-22" d="M402.48,195.21l2.76.34a.94.94,0,0,0,.32.66,1.8,1.8,0,0,0,1.08.26,2.82,2.82,0,0,0,1.42-.29,1.16,1.16,0,0,0,.48-.61,3.71,3.71,0,0,0,.11-1.1v-1.33a3.27,3.27,0,0,1-2.73,1.47,3.39,3.39,0,0,1-2.92-1.55,5.38,5.38,0,0,1-.84-3.06,5,5,0,0,1,1.11-3.5,3.54,3.54,0,0,1,2.74-1.21,3.33,3.33,0,0,1,2.79,1.48V185.5h2.26v8.18a8,8,0,0,1-.27,2.41,2.89,2.89,0,0,1-.74,1.25,3.35,3.35,0,0,1-1.28.72,6.92,6.92,0,0,1-2,.25,5.22,5.22,0,0,1-3.28-.79,2.49,2.49,0,0,1-1-2c0-.09,0-.18,0-.3m2.16-5.34a3.32,3.32,0,0,0,.56,2.12,1.75,1.75,0,0,0,1.39.67,1.9,1.9,0,0,0,1.49-.69,3,3,0,0,0,.61-2.05,3.19,3.19,0,0,0-.58-2.1,1.85,1.85,0,0,0-1.48-.69,1.79,1.79,0,0,0-1.43.68,3.19,3.19,0,0,0-.56,2.06" transform="translate(-57.07 -33.72)"/>
				<path class="cls-22" d="M413.07,182h2.41v2.23h-2.41Zm0,3.47h2.41v9.11h-2.41Z" transform="translate(-57.07 -33.72)"/>
				<rect class="cls-22" x="360.5" y="148.3" width="2.41" height="12.59"/>
				<path class="cls-22" d="M427.35,191.71l2.41.4a3.85,3.85,0,0,1-1.47,2,4.22,4.22,0,0,1-2.5.7,4.07,4.07,0,0,1-3.52-1.56,5.19,5.19,0,0,1-.9-3.14,5,5,0,0,1,1.18-3.55,3.89,3.89,0,0,1,3-1.28,4.05,4.05,0,0,1,3.21,1.34,6,6,0,0,1,1.13,4.12h-6.05a2.48,2.48,0,0,0,.58,1.67,1.82,1.82,0,0,0,1.39.6,1.53,1.53,0,0,0,1-.31,1.9,1.9,0,0,0,.58-1m.14-2.44a2.34,2.34,0,0,0-.54-1.59,1.67,1.67,0,0,0-1.25-.55,1.69,1.69,0,0,0-1.31.58,2.26,2.26,0,0,0-.51,1.56Z" transform="translate(-57.07 -33.72)"/>
				<path class="cls-23" d="M220.82,168.72c-10.73-9.94-18.51-23.88-24.34-39.2-1.56-4.12-3-8.33-4.29-12.59-6.27-20.5-9.73-42.13-12.55-59.25a1.26,1.26,0,0,1-.15.68c0-.22.09-.45.15-.68l-6.34,5.67c-2.56,1.7-5,3.39-5.28,4.72-4.92,21.24-6.87,42.93-10.75,64.36-4.65,24.3-13.16,44.08-28.94,62.83,1.23-1.46,6-3.75,11.67-10.46a125,125,0,0,0,16.13-24.09,125.8,125.8,0,0,0,7.21-17.18,162,162,0,0,0,5.55-21.5c1.56-8.59,2.81-17.23,4.06-25.87A311.8,311.8,0,0,0,181,128.73c1.26,4,2.63,8,4.12,11.86,6.5,16.87,15.4,32,28,41.9,7.58,5.93,7.66-13.77,7.66-13.77" transform="translate(-57.07 -33.72)"/>
				<path class="cls-23" d="M300.76,74.82c-4.19-3-5.51-3.52-7.43-4.3-7.39-3-15.8-2.35-23.36-.59-15.64,3.63-28.6,11.3-42.55,22.78-13.78,11.35-24.47,25.83-35.85,39.42,0,.12.1.23.14.35l-.14,0c-.79.94-5.06,4.91-6,5.69a81.89,81.89,0,0,1-25.88,15L151,169.44C157.64,168.16,164,168,181,156.25c0,.07,5.45-4.2,5.48-4.12,1.87-1.75,9.35-9.86,9.41-10,10.74-12.08,20-25.46,31.51-36.84,9.86-9.74,22.24-17.67,34.61-23.78a73.52,73.52,0,0,1,22.46-7.17,39.14,39.14,0,0,1,11,.16,40.14,40.14,0,0,1,4.48,1.11c3,.79,8.12,4.43.83-.77" transform="translate(-57.07 -33.72)"/>
				<path class="cls-23" d="M300.76,74.82c-4.19-3-5.51-3.52-7.43-4.3-7.39-3-15.8-2.35-23.36-.59-15.64,3.63-28.6,11.3-42.55,22.78-13.78,11.35-24.47,25.83-35.85,39.42,0,.12.1.23.14.35l-.14,0c-.79.94-5.06,4.91-6,5.69a81.89,81.89,0,0,1-25.88,15L151,169.44C157.64,168.16,164,168,181,156.25c0,.07,5.45-4.2,5.48-4.12,1.87-1.75,9.35-9.86,9.41-10,10.74-12.08,20-25.46,31.51-36.84,9.86-9.74,22.24-17.67,34.61-23.78a73.52,73.52,0,0,1,22.46-7.17,39.14,39.14,0,0,1,11,.16,40.14,40.14,0,0,1,4.48,1.11c3,.79,8.12,4.43.83-.77" transform="translate(-57.07 -33.72)"/>
				<path class="cls-23" d="M243.23,126.23c-.63-4.67-2.67-9.27-4.23-13.67-.08-.22-.16-.43-.25-.63l-.07-.2,0,.13c-1.63-3.67-4.51-3.3-7.93-1.11a27.18,27.18,0,0,0-9.77,12c-1.85,4.53.19,10.16,1.64,14.51,1.18,3.55,2,9.49,5.42,11.75,3.13,2.09,7.89-1,10.45-2.62a59,59,0,0,0,15.69-15.35q-.16,3.65-.5,7.28c-1.5.81-3,1.63-4.43,2.49a132.23,132.23,0,0,0-29.17,22.7c-6.81,7.22-13.78,17.84-11.05,28.27,1.25,4.77,3,9.45,4.63,14.09a28.25,28.25,0,0,0,3.3,6.33c2,3,3.42,2.94,6.75,2.71,18.64-1.26,26.45-23.73,30.14-38.84A167.73,167.73,0,0,0,258,150.59c9-5,18.66-9,26.49-15.54.8,3,1.78,6.06,3.42,8.23,4.12,5.46,17.33-5.38,21.5-9a47.63,47.63,0,0,0,4.46,7.6c7.89,10.75,21.34,11.21,33.11,8,7.63-2.06,15.22-6.09,20.43-12.15l.84.28c42.73,1.49,47.78-20.68,61.31-40.66-15.29,13.34-37.06,30.13-57.76,29.58,0-1.91,2.22-8,.63-13.25-2.6-8.56-13.14-8.7-17-4.19-5,5.83.64,15.48,3.27,20.11a48.79,48.79,0,0,1-12.95,6.95c-11.84,4.34-24.84,4-33.81-4.68,7.91-7.9,13.68-18.87,18-28.92,2.3-5.39,4.06-11.29,3.58-17.19-.4-5-3-10.28-4.72-15-5.63-15.76-16.28-2.12-20.26,6.55-4.82,10.48-6.54,23.11-5.4,34.51A67.14,67.14,0,0,0,305,121.93c-4.72,4.23-11.13,9.07-15.95,10.17.5-1.1,1-2.14,1.46-3.09.55-1.16-.73-3.63-2.05-6.09l-2.12-6.3-.17.37a.9.9,0,0,1,.17-.37c-7.21,8.9-17.61,14-27.73,19.18q0-5.79-.5-11.48c-.17-2-1.39-4.33-2-6.21-.05-.17-.19-.48-.36-.87l-1.79-5.31c0,.34.06.68.08,1a1.91,1.91,0,0,1-.08-1c-1.13,2.5-5.47,8.66-10.69,14.3m8.38,28.13c-.23,1.35-.48,2.7-.74,4-2.92,15.12-8.44,34.3-23.22,41.92a23.5,23.5,0,0,1-10.3,2.34c-2.47.06-3.48-1.2-4.64-3,0-.41,0-.83,0-1.24.22-10.83,9-20.34,16.37-27.3a137,137,0,0,1,22.52-16.78m107-25.13c.05.11.1.23.16.34l-.06,0c0-.12-.07-.25-.1-.38m4.46-3.74a16.38,16.38,0,0,1-3.55-1.78c1.61-3.3,4.79-6.08,7.64-5.87a19.33,19.33,0,0,1-4.09,7.65M307,120.08c-.05-1.62,0-3.24,0-4.85a74.21,74.21,0,0,1,3.47-19.43c2.12-6.87,11.95-25.19,18.93-18.86-.28,5.79-2.69,11.58-5,16.73a117,117,0,0,1-13.36,22.13,44.24,44.24,0,0,1-4.05,4.28m-63.78,6.15c-6.11,6.6-13.43,12.46-18.23,10.89a20.07,20.07,0,0,1,4.5-8.85c2.22-2.76,9.64-10.16,12.73-5.43a15.78,15.78,0,0,1,1,3.39" transform="translate(-57.07 -33.72)"/>
				<path class="cls-23" d="M284,108.4a5.55,5.55,0,1,0-5.55-5.55A5.56,5.56,0,0,0,284,108.4" transform="translate(-57.07 -33.72)"/>
				<path class="cls-24" d="M67.42,177.41H57.07V103.52H67.42Zm71-4.83a39.71,39.71,0,0,1-6.25,2.93,48.6,48.6,0,0,1-17,2.74q-15.52,0-25.65-10.45T79.34,140.57q0-18.25,11.14-28t30.45-9.76a22.89,22.89,0,0,1,5.86.74,44,44,0,0,1,6.6,2.43A40.77,40.77,0,0,1,143.84,113l-2,2.64-2.22-1.58a46.09,46.09,0,0,0-5.39-3.22,32,32,0,0,0-5-2,42.42,42.42,0,0,0-5.44-1.27,35.35,35.35,0,0,0-5.7-.47q-12,0-19.37,8.81t-7.33,24.33q0,15.94,7.39,24.81t19.74,8.87a42.73,42.73,0,0,0,11.61-1.8,27.42,27.42,0,0,0,9.6-4.85l1.8-1.48.11.11q-1.53,3.38-3.26,6.67" transform="translate(-57.07 -33.72)"/>
			</g>
			<text x="-57.07" y="-33.72"/>
			<text class="cls-25" transform="translate(359.25 122.97)">®</text>
		</g>
	</g>
</svg>