<?xml version="1.0" encoding="UTF-8"?>
<svg id="Layer_1" data-name="Layer 1" xmlns="http://www.w3.org/2000/svg" version="1.1" viewBox="0 0 218.56 37.14" width="200px">
  <defs>
    <style>
      .cls-1 {
        fill: #182340;
      }

      .cls-1, .cls-2 {
        stroke-width: 0px;
      }

      .cls-2 {
        fill: #fa9449;
      }
    </style>
  </defs>
  <path class="cls-2" d="M13.2,16.29c0-1.09-.92-2-2-2s-2,.92-2,2,.92,2,2,2,2-.92,2-2Z"/>
  <path class="cls-2" d="M16.34,17.2c1.01,0,1.83-.82,1.83-1.83s-.82-1.83-1.83-1.83-1.83.82-1.83,1.83.82,1.83,1.83,1.83Z"/>
  <path class="cls-2" d="M22.92,16.75c0-.92-.74-1.66-1.66-1.66s-1.66.74-1.66,1.66.74,1.66,1.66,1.66c.92.06,1.66-.69,1.66-1.66Z"/>
  <path class="cls-2" d="M7.42,24.76c0-1.26-1.03-2.23-2.23-2.23s-2.23,1.03-2.23,2.23,1.03,2.23,2.23,2.23,2.23-1.03,2.23-2.23Z"/>
  <path class="cls-2" d="M9.3,19.55c0-1.2-.97-2.12-2.12-2.12-1.2,0-2.12.97-2.12,2.12,0,1.2.97,2.12,2.12,2.12,1.2.06,2.12-.92,2.12-2.12Z"/>
  <path class="cls-2" d="M26.3,20.35c0-.8-.63-1.49-1.49-1.49-.8,0-1.49.63-1.49,1.49,0,.8.63,1.49,1.49,1.49s1.49-.69,1.49-1.49Z"/>
  <path class="cls-2" d="M27.79,24.93c0-.74-.63-1.37-1.37-1.37s-1.37.63-1.37,1.37.63,1.37,1.37,1.37c.74-.06,1.37-.63,1.37-1.37Z"/>
  <path class="cls-2" d="M26.93,29.51c0-.63-.52-1.14-1.14-1.14s-1.14.52-1.14,1.14.52,1.14,1.14,1.14,1.14-.52,1.14-1.14Z"/>
  <path class="cls-1" d="M152.2,9.82c0-.63-.52-1.14-1.14-1.14s-1.14.52-1.14,1.14.52,1.14,1.14,1.14,1.14-.52,1.14-1.14Z"/>
  <path class="cls-2" d="M24.41,33.63c0-.57-.46-.97-.97-.97-.57,0-.97.46-.97.97,0,.57.46.97.97.97.52.06.97-.4.97-.97Z"/>
  <path class="cls-2" d="M20.63,35.97c0-.52-.4-.92-.92-.92s-.92.4-.92.92.4.92.92.92.92-.4.92-.92Z"/>
  <path class="cls-2" d="M9.48,1.69c-.06-.69.4-1.32,1.09-1.37.69-.11,1.32.4,1.43,1.09.11.69-.4,1.32-1.09,1.43-.69.06-1.32-.46-1.43-1.14Z"/>
  <path class="cls-2" d="M6.27,1.58c-.11-.63.34-1.2.97-1.32.63-.11,1.2.34,1.32.97.11.63-.34,1.2-.97,1.32-.69.11-1.26-.34-1.32-.97Z"/>
  <path class="cls-2" d="M3.3,3.01c-.06-.57.34-1.09.92-1.2.57-.06,1.09.34,1.2.92.06.57-.34,1.09-.92,1.2-.57.06-1.14-.34-1.2-.92Z"/>
  <path class="cls-2" d="M13.94,6.56c-.11-.8.4-1.49,1.2-1.6.8-.11,1.49.4,1.6,1.2.11.8-.4,1.49-1.2,1.6-.74.11-1.49-.4-1.6-1.2Z"/>
  <path class="cls-2" d="M12.28,3.47c-.11-.74.4-1.43,1.14-1.55s1.43.4,1.55,1.14c.11.74-.4,1.43-1.14,1.55-.74.06-1.43-.4-1.55-1.14Z"/>
  <path class="cls-2" d="M1.52,5.53c-.06-.52.29-.97.8-1.09.52-.06.97.29,1.09.8.06.52-.29.97-.8,1.09-.57.06-1.03-.29-1.09-.8Z"/>
  <path class="cls-2" d="M1.01,8.56c-.06-.46.29-.92.74-.97.46-.06.92.29.97.74.06.46-.29.92-.74.97-.46.06-.92-.29-.97-.74Z"/>
  <path class="cls-2" d="M1.98,11.42c-.06-.4.23-.8.63-.86.4-.06.8.23.86.63.06.4-.23.8-.63.86-.46.06-.8-.23-.86-.63Z"/>
  <path class="cls-2" d="M3.98,13.83c-.06-.34.17-.69.52-.74.34-.06.69.17.74.52s-.17.69-.52.74c-.4.06-.69-.17-.74-.52Z"/>
  <path class="cls-2" d="M6.56,14.91c-.06-.34.17-.63.52-.69.34-.06.63.17.69.52s-.17.63-.52.69c-.34.06-.63-.17-.69-.52Z"/>
  <path class="cls-1" d="M33.51,22.87h1.89l-.29,1.66c-.34,1.89,1.89,2.52,4.01,2.52,2.8,0,5.09-1.66,5.09-4.18,0-4.81-8.81-2.86-8.81-8.81,0-3.61,3.43-5.72,7.27-5.72,2.29,0,5.61.97,5.15,3.26l-.4,1.95h-1.89l.29-1.43c.29-1.55-1.89-1.95-3.43-1.95-2.63,0-4.86,1.49-4.86,3.78,0,4.41,8.81,2.58,8.81,8.7,0,3.78-3.43,6.18-7.38,6.18-2.46,0-6.29-.97-5.67-4.12l.23-1.83Z"/>
  <path class="cls-1" d="M56.57,14c1.89,0,5.38.74,4.92,3.15l-.23,1.14h-1.77l.11-.69c.23-1.37-1.83-1.89-3.2-1.89-3.2,0-6.35,2.92-6.35,6.81,0,2.75,1.6,4.58,4.52,4.58s4.75-1.77,4.75-1.77l.63,1.6s-1.89,1.95-5.55,1.95c-3.89,0-6.29-2.4-6.29-6.18,0-4.92,4.06-8.7,8.47-8.7Z"/>
  <path class="cls-1" d="M64.7,16.63c.06-.34,0-.63-.52-.63h-1.2l.34-1.66h1.95c1.09,0,1.43.4,1.43,1.14,0,.34-.29,1.95-.57,2.58h.06c.97-2,2.86-3.89,5.26-3.89.29,0,.57,0,.8.06l-.34,1.89c-.17,0-.4-.06-.69-.06-3.03,0-5.21,3.72-5.84,6.98l-1.03,5.44h-1.89l2.23-11.85Z"/>
  <path class="cls-1" d="M73.51,23.27l1.26-6.41c0-.11.06-.4.06-.52,0-.23-.17-.4-.52-.4h-1.2l.34-1.66h1.95c1.03,0,1.49.4,1.49,1.26,0,.17,0,.4-.06.69l-1.26,6.64c-.11.57-.17,1.14-.17,1.72,0,1.43.57,2.46,2.46,2.46,3.2,0,5.84-3.26,6.41-6.18l1.26-6.52h1.89l-2.23,11.45c-.06.17-.06.46-.06.63,0,.29.17.46.52.46h1.14l-.29,1.66h-1.95c-1.03,0-1.43-.4-1.43-1.2,0-.57.23-1.43.4-2.12h-.06c-.74,1.32-2.92,3.66-6.12,3.66-2.8,0-3.95-1.49-3.95-3.78-.06-.57,0-1.2.11-1.83Z"/>
  <path class="cls-1" d="M91.08,17.09c.06-.23.06-.52.06-.63,0-.29-.17-.46-.52-.46h-1.14l.29-1.66h1.89c1.03,0,1.49.46,1.49,1.2,0,.52-.17,1.43-.34,2h.06c.74-1.26,2.86-3.61,5.89-3.61,2.52,0,3.61,1.37,3.66,3.61h.06c.8-1.32,2.98-3.61,5.95-3.61,2.63,0,3.72,1.43,3.72,3.72,0,.52-.06,1.14-.17,1.77l-1.26,6.47c0,.11-.06.4-.06.46,0,.29.17.4.52.4h1.2l-.29,1.66h-1.95c-1.03,0-1.49-.4-1.49-1.26,0-.17,0-.4.06-.63l1.32-6.64c.11-.63.17-1.2.17-1.72,0-1.43-.52-2.46-2.23-2.46-2.98,0-5.55,3.2-6.12,6.01l-1.32,6.7h-1.89l1.66-8.53c.11-.63.17-1.2.17-1.72,0-1.43-.52-2.46-2.23-2.46-3.09,0-5.61,3.2-6.12,6.07l-1.32,6.64h-1.89l2.17-11.33Z"/>
  <path class="cls-1" d="M113.51,26.76h.52c.46,0,.69-.06.97-.63l9.9-17.45h2.12l3.09,17.51c.06.46.23.52.69.52h.52l-.34,1.77h-1.2c-1.14,0-1.37-.29-1.66-1.66l-.8-4.69h-7.84l-2.63,4.69c-.74,1.37-1.14,1.66-2.29,1.66h-1.32l.29-1.72ZM127.13,20.46l-1.26-7.1c-.11-.92-.23-2.58-.23-2.58h-.06s-.74,1.66-1.26,2.58l-3.95,7.1h6.75Z"/>
  <path class="cls-1" d="M133.37,26.59l2.92-15.22c.06-.29.06-.4.06-.63,0-.29-.17-.4-.52-.4h-1.2l.34-1.66h1.95c1.03,0,1.49.34,1.49,1.2,0,.23-.06.52-.11.8l-2.98,15.22c0,.11-.06.4-.06.46,0,.29.17.4.52.4h1.2l-.29,1.66h-1.95c-.97,0-1.49-.4-1.49-1.26.06-.06.06-.34.11-.57Z"/>
  <path class="cls-1" d="M140.29,26.59l2.92-15.22c.06-.29.06-.4.06-.63,0-.29-.17-.4-.52-.4h-1.14l.34-1.66h1.95c1.03,0,1.49.34,1.49,1.2,0,.23-.06.52-.11.8l-2.98,15.22c0,.11-.06.4-.06.46,0,.29.17.4.52.4h1.2l-.29,1.66h-1.95c-.97,0-1.49-.4-1.49-1.26-.06-.06,0-.34.06-.57Z"/>
  <path class="cls-1" d="M147.22,26.47l1.89-9.5c.06-.29.06-.4.06-.63,0-.29-.17-.4-.52-.4h-1.2l.34-1.66h1.89c1.03,0,1.49.34,1.49,1.2,0,.23-.06.57-.11.86l-1.89,9.56c0,.11-.06.4-.06.46,0,.29.17.4.52.4h1.2l-.29,1.66h-1.95c-.97,0-1.49-.4-1.49-1.26,0-.06.06-.29.11-.69Z"/>
  <path class="cls-1" d="M162.15,19.78h.92l.06-.34c.06-.52.11-.86.11-1.37,0-1.66-.97-2.46-2.92-2.46-.97,0-2.98.23-3.15,1.26l-.11.92h-1.89l.23-1.37c.34-1.83,3.2-2.4,5.15-2.4,3.2,0,4.58,1.6,4.58,3.89,0,.52-.06,1.14-.17,1.72l-1.2,6.12c0,.17-.11.52-.11.63,0,.23.11.4.52.4h1.2l-.29,1.66h-1.83c-1.09,0-1.55-.4-1.55-1.14,0-.34.17-1.26.34-1.77h-.06s-1.72,3.2-5.32,3.2c-2.12,0-4.12-1.14-4.12-3.72.06-4.12,5.26-5.21,9.61-5.21ZM157.12,27.27c2.92,0,5.15-3.32,5.55-5.32l.11-.63h-.8c-2.4,0-7.44.34-7.44,3.61,0,1.43,1.03,2.35,2.58,2.35Z"/>
  <path class="cls-1" d="M169.54,17.09c.06-.23.06-.52.06-.63,0-.29-.17-.46-.52-.46h-1.14l.29-1.66h1.89c1.03,0,1.49.46,1.49,1.2,0,.57-.23,1.43-.4,2.12h.06c.8-1.32,2.92-3.66,6.24-3.66,2.8,0,4.01,1.49,4.01,3.78,0,.52-.06,1.14-.17,1.77l-1.26,6.41c0,.11-.06.4-.06.46,0,.29.17.4.52.4h1.2l-.29,1.66h-1.95c-1.03,0-1.49-.4-1.49-1.26,0-.17,0-.4.06-.63l1.32-6.64c.11-.57.17-1.14.17-1.66,0-1.43-.57-2.52-2.52-2.52-3.2,0-5.89,3.15-6.47,5.95l-1.32,6.75h-1.89l2.17-11.39Z"/>
  <path class="cls-1" d="M191.74,14c1.89,0,5.38.74,4.92,3.15l-.23,1.14h-1.77l.11-.69c.23-1.37-1.83-1.89-3.2-1.89-3.2,0-6.35,2.92-6.35,6.81,0,2.75,1.6,4.58,4.52,4.58s4.75-1.77,4.75-1.77l.63,1.6s-1.89,1.95-5.55,1.95c-3.89,0-6.29-2.4-6.29-6.18,0-4.92,4.06-8.7,8.47-8.7Z"/>
  <path class="cls-1" d="M205.53,14c3.49,0,5.09,2.17,5.09,5.15,0,1.09-.4,2.35-.4,2.35h-10.87s-.11.57-.11,1.26c0,2.46,1.55,4.41,4.52,4.41,2.58,0,4.64-1.72,4.64-1.72l.63,1.6s-2.35,1.89-5.38,1.89c-3.83,0-6.41-2.4-6.41-5.95,0-4.75,3.49-8.98,8.3-8.98ZM208.56,19.95s.06-.46.06-.97c0-2.29-1.37-3.38-3.2-3.38-2.35,0-4.69,1.55-5.67,4.35h8.81Z"/>
  <path class="cls-1" d="M215.37,11.25c-.06-.11-.11-.11-.11-.17.23-.06.46-.29.46-.63,0-.46-.29-.74-.74-.74h-.92v2.4h.46v-.92h.4l.46.92h.52l-.52-.86ZM214.92,10.91h-.4v-.8h.4c.23,0,.4.17.4.4s-.17.4-.4.4Z"/>
  <path class="cls-1" d="M215.37,11.25c-.06-.11-.11-.11-.11-.17.23-.06.46-.29.46-.63,0-.46-.29-.74-.74-.74h-.92v2.4h.46v-.92h.4l.46.92h.52l-.52-.86ZM214.92,10.91h-.4v-.8h.4c.23,0,.4.17.4.4s-.17.4-.4.4Z"/>
  <path class="cls-1" d="M214.86,8.68c-1.26,0-2.29,1.03-2.29,2.29s.97,2.29,2.29,2.29,2.29-1.03,2.29-2.29-1.03-2.29-2.29-2.29ZM214.86,12.85c-1.03,0-1.83-.8-1.83-1.89,0-1.03.74-1.89,1.83-1.89,1.03,0,1.83.8,1.83,1.89,0,1.03-.8,1.89-1.83,1.89Z"/>
  <path class="cls-1" d="M215.37,11.25c-.06-.11-.11-.11-.11-.17.23-.06.46-.29.46-.63,0-.46-.29-.74-.74-.74h-.92v2.4h.46v-.92h.4l.46.92h.52l-.52-.86ZM214.92,10.91h-.4v-.8h.4c.23,0,.4.17.4.4s-.17.4-.4.4Z"/>
</svg>