<?xml version="1.0" encoding="iso-8859-1"?>
<!-- Generator: Adobe Illustrator 19.0.0, SVG Export Plug-In . SVG Version: 6.00 Build 0)  -->
<svg version="1.1" id="Capa_1" xmlns="http://www.w3.org/2000/svg" xmlns:xlink="http://www.w3.org/1999/xlink" x="0px" y="0px"
	 viewBox="0 0 512 512" style="enable-background:new 0 0 512 512;" xml:space="preserve">
<path style="fill:#5C5E70;" d="M512,256c0,4.305-0.104,8.579-0.313,12.831c-0.449,9.007-1.358,17.899-2.717,26.645
	c-1.306,8.453-3.03,16.771-5.151,24.921c-2.341,9.091-5.183,17.983-8.485,26.645c-4.817,12.664-10.616,24.848-17.293,36.456
	c-4.19,7.283-8.725,14.336-13.584,21.138c-8.746,12.236-18.536,23.677-29.257,34.179c-3.396,3.323-6.875,6.562-10.449,9.686
	c-4.232,3.72-8.589,7.293-13.061,10.731c-3.417,2.612-6.896,5.151-10.449,7.596c-2.403,1.672-4.848,3.291-7.314,4.869
	c-4.441,2.853-8.965,5.559-13.584,8.119c-11.985,6.677-24.555,12.413-37.616,17.115c-4.472,1.609-8.997,3.103-13.584,4.462
	c-9.529,2.842-19.299,5.141-29.257,6.855c-3.459,0.606-6.949,1.128-10.449,1.578c-4.326,0.575-8.673,1.024-13.061,1.379
	c-3.459,0.272-6.949,0.47-10.449,0.606C262.635,511.937,259.323,512,256,512c-85.964,0-162.032-42.371-208.457-107.363
	C21.149,367.7,4.347,323.448,0.731,275.519C0.251,269.072,0,262.562,0,256c0-2.382,0.031-4.765,0.104-7.126
	c0.763-28.003,6.019-54.878,15.088-79.935c3.291-9.143,7.105-18.035,11.379-26.645c6.071-12.236,13.103-23.907,20.971-34.931
	C93.968,42.371,170.036,0,256,0c25.422,0,49.967,3.699,73.143,10.606c4.587,1.358,9.112,2.853,13.584,4.462
	c2.403,0.857,4.796,1.766,7.168,2.696c10.501,4.148,20.647,8.955,30.417,14.399h0.01c4.629,2.57,9.164,5.287,13.605,8.14
	c2.257,1.442,4.483,2.915,6.687,4.43c3.772,2.581,7.461,5.266,11.076,8.035c4.472,3.438,8.829,7.011,13.061,10.731
	c3.574,3.124,7.053,6.363,10.449,9.686c10.721,10.501,20.511,21.943,29.257,34.179c4.859,6.802,9.394,13.855,13.584,21.138
	c15.203,26.405,25.819,55.777,30.762,87.04c1.4,8.735,2.351,17.627,2.821,26.645C511.875,246.763,512,251.361,512,256z"/>
<path style="fill:#F9AF6B;" d="M478.041,33.458v350.041c-4.19,7.283-8.725,14.336-13.584,21.138
	c-8.746,12.236-18.536,23.677-29.257,34.179c-3.396,3.323-6.875,6.562-10.449,9.686c-4.232,3.72-8.589,7.293-13.061,10.731
	c-3.417,2.612-6.896,5.151-10.449,7.596c-2.403,1.672-4.848,3.291-7.314,4.869c-4.441,2.853-8.965,5.559-13.584,8.119
	c-11.985,6.677-24.555,12.413-37.616,17.115V0h101.857C463.057,0,478.041,14.973,478.041,33.458z"/>
<path style="fill:#E28D40;" d="M464.457,33.458v371.179c-8.746,12.236-18.536,23.677-29.257,34.179
	c-3.396,3.323-6.875,6.562-10.449,9.686c-4.232,3.72-8.589,7.293-13.061,10.731c-3.417,2.612-6.896,5.151-10.449,7.596
	c-2.403,1.672-4.848,3.291-7.314,4.869c-4.441,2.853-8.965,5.559-13.584,8.119c-11.985,6.677-24.555,12.413-37.616,17.115
	c-4.472,1.609-8.997,3.103-13.584,4.462V0H431C449.473,0,464.457,14.973,464.457,33.458z"/>
<path style="fill:#E8DBC4;" d="M435.2,51.221v387.594c-3.396,3.323-6.875,6.562-10.449,9.686c-4.232,3.72-8.589,7.293-13.061,10.731
	c-3.417,2.612-6.896,5.151-10.449,7.596c-2.403,1.672-4.848,3.291-7.314,4.869c-4.441,2.853-8.965,5.559-13.584,8.119
	c-11.985,6.677-24.555,12.413-37.616,17.115c-4.472,1.609-8.997,3.103-13.584,4.462c-9.529,2.842-19.299,5.141-29.257,6.855V17.763
	h101.857C420.216,17.763,435.2,32.737,435.2,51.221z"/>
<path style="fill:#D6C8B0;" d="M424.751,51.221v397.281c-4.232,3.72-8.589,7.293-13.061,10.731
	c-3.417,2.612-6.896,5.151-10.449,7.596c-2.403,1.672-4.848,3.291-7.314,4.869c-4.441,2.853-8.965,5.559-13.584,8.119
	c-11.985,6.677-24.555,12.413-37.616,17.115c-4.472,1.609-8.997,3.103-13.584,4.462c-9.529,2.842-19.299,5.141-29.257,6.855
	c-3.459,0.606-6.949,1.128-10.449,1.578V17.763h101.857C409.767,17.763,424.751,32.737,424.751,51.221z"/>
<path style="fill:#E8DBC4;" d="M411.69,51.221v408.012c-3.417,2.612-6.896,5.151-10.449,7.596c-2.403,1.672-4.848,3.291-7.314,4.869
	c-4.441,2.853-8.965,5.559-13.584,8.119c-11.985,6.677-24.555,12.413-37.616,17.115c-4.472,1.609-8.997,3.103-13.584,4.462
	c-9.529,2.842-19.299,5.141-29.257,6.855c-3.459,0.606-6.949,1.128-10.449,1.578c-4.326,0.575-8.673,1.024-13.061,1.379V17.763
	h101.857c4.629,0,9.038,0.94,13.051,2.633C403.278,25.485,411.69,37.366,411.69,51.221z"/>
<path style="fill:#D6C8B0;" d="M401.241,51.221v415.608c-2.403,1.672-4.848,3.291-7.314,4.869
	c-4.441,2.853-8.965,5.559-13.584,8.119c-11.985,6.677-24.555,12.413-37.616,17.115c-4.472,1.609-8.997,3.103-13.584,4.462
	c-9.529,2.842-19.299,5.141-29.257,6.855c-3.459,0.606-6.949,1.128-10.449,1.578c-4.326,0.575-8.673,1.024-13.061,1.379
	c-3.459,0.272-6.949,0.47-10.449,0.606V17.763h101.857c3.229,0,6.363,0.46,9.32,1.317c6.625,1.912,12.413,5.831,16.656,11.045
	c0,0.01,0,0.01,0,0.01v0.01c3.385,4.159,5.778,9.122,6.855,14.587C401.021,46.832,401.241,49.006,401.241,51.221z"/>
<path style="fill:#F4A14E;" d="M393.927,33.458v438.241c-4.441,2.853-8.965,5.559-13.584,8.119
	c-11.985,6.677-24.555,12.413-37.616,17.115c-4.472,1.609-8.997,3.103-13.584,4.462c-9.529,2.842-19.299,5.141-29.257,6.855
	c-3.459,0.606-6.949,1.128-10.449,1.578c-4.326,0.575-8.673,1.024-13.061,1.379c-3.459,0.272-6.949,0.47-10.449,0.606V512H256
	c-85.964,0-162.032-42.371-208.457-107.363V33.458C47.543,14.973,62.516,0,80.99,0h279.479c0.428,0,0.846,0.01,1.275,0.021
	c0.376,0.021,0.742,0.042,1.108,0.063c0.282,0.021,0.575,0.042,0.857,0.073c2.842,0.272,5.58,0.899,8.161,1.839
	c0.293,0.104,0.585,0.209,0.867,0.324c0.773,0.303,1.526,0.637,2.257,0.993c0.334,0.157,0.669,0.324,1.003,0.502
	c0.387,0.199,0.763,0.408,1.128,0.616c0.272,0.167,0.543,0.324,0.815,0.491c0.303,0.188,0.596,0.376,0.888,0.564
	c0.951,0.616,1.87,1.296,2.748,2.017c0.178,0.136,0.355,0.282,0.522,0.439c0.094,0.063,0.178,0.146,0.261,0.219
	c0.157,0.125,0.303,0.261,0.449,0.397c1.452,1.285,2.779,2.717,3.981,4.242c0.136,0.178,0.272,0.355,0.418,0.533
	c0.606,0.805,1.17,1.64,1.714,2.497c0.167,0.282,0.334,0.564,0.502,0.846c0.042,0.073,0.084,0.136,0.115,0.209
	c0.178,0.293,0.334,0.585,0.491,0.878c0.209,0.387,0.408,0.784,0.596,1.181c0.23,0.481,0.449,0.972,0.658,1.452
	c0.167,0.387,0.313,0.763,0.46,1.149c0.125,0.303,0.23,0.616,0.334,0.92c0.178,0.502,0.334,1.003,0.491,1.515
	c0.094,0.324,0.188,0.637,0.261,0.961c0.449,1.682,0.763,3.417,0.93,5.183c0,0.01,0,0.01,0,0.01v0.01
	c0.031,0.272,0.052,0.543,0.073,0.815C393.895,31.786,393.927,32.622,393.927,33.458z"/>
<path style="fill:#F9AF6B;" d="M393.927,33.458v438.241c-4.441,2.853-8.965,5.559-13.584,8.119V33.458
	c0-0.428-0.01-0.867-0.021-1.296h-0.01c-0.167-4.671-1.306-9.091-3.208-13.082c-0.209-0.439-0.428-0.878-0.658-1.317
	C370.824,7.199,359.696,0,346.885,0h13.584c0.428,0,0.846,0.01,1.275,0.021c0.376,0.021,0.742,0.042,1.108,0.063
	c0.282,0.021,0.575,0.042,0.857,0.073c2.842,0.272,5.58,0.899,8.161,1.839c0.293,0.104,0.585,0.209,0.867,0.324
	c0.773,0.303,1.526,0.637,2.257,0.993c0.334,0.157,0.669,0.324,1.003,0.502c0.387,0.199,0.763,0.408,1.128,0.616
	c0.272,0.167,0.543,0.324,0.815,0.491c0.303,0.188,0.596,0.376,0.888,0.564c0.951,0.616,1.87,1.296,2.748,2.017
	c0.178,0.136,0.355,0.282,0.522,0.439c0.094,0.063,0.178,0.146,0.261,0.219c0.157,0.125,0.303,0.261,0.449,0.397
	c1.452,1.285,2.779,2.717,3.981,4.242c0.136,0.178,0.272,0.355,0.418,0.533c0.606,0.805,1.17,1.64,1.714,2.497
	c0.167,0.282,0.334,0.564,0.502,0.846c0.042,0.073,0.084,0.136,0.115,0.209c0.178,0.293,0.334,0.585,0.491,0.878
	c0.209,0.387,0.408,0.784,0.596,1.181c0.23,0.481,0.449,0.972,0.658,1.452c0.167,0.387,0.313,0.763,0.46,1.149
	c0.125,0.303,0.23,0.616,0.334,0.92c0.178,0.502,0.334,1.003,0.491,1.515c0.094,0.324,0.188,0.637,0.261,0.961
	c0.449,1.682,0.763,3.417,0.93,5.183c0,0.01,0,0.01,0,0.01c0.01,0.01,0,0.01,0,0.01c0.031,0.272,0.052,0.543,0.073,0.815
	C393.895,31.786,393.927,32.622,393.927,33.458z"/>
<g>
	<path style="fill:#E28D40;" d="M156.993,241.05l-13.523-24.626v24.199c0,2.278-2.775,3.417-5.552,3.417s-5.552-1.139-5.552-3.417
		v-45.195c0-2.349,2.775-3.417,5.552-3.417c3.985,0,5.48,0.356,8.185,5.552l11.529,21.993v-24.199c0-2.349,2.776-3.345,5.552-3.345
		s5.552,0.997,5.552,3.345v45.266c0,2.278-2.775,3.417-5.552,3.417C160.623,244.039,158.345,243.541,156.993,241.05z"/>
	<path style="fill:#E28D40;" d="M182.969,227.669v-18.861c0-12.242,7.615-16.797,17.437-16.797c9.821,0,17.508,4.555,17.508,16.797
		v18.861c0,12.242-7.686,16.797-17.508,16.797C190.585,244.466,182.969,239.911,182.969,227.669z M206.812,208.808
		c0-4.911-2.419-7.118-6.405-7.118c-3.986,0-6.335,2.207-6.335,7.118v18.861c0,4.911,2.349,7.118,6.335,7.118
		c3.986,0,6.405-2.207,6.405-7.118V208.808z"/>
	<path style="fill:#E28D40;" d="M262.186,192.011c2.349,0,3.345,2.562,3.345,4.911c0,2.704-1.21,5.053-3.345,5.053h-9.822v38.648
		c0,2.278-2.775,3.417-5.552,3.417c-2.776,0-5.552-1.139-5.552-3.417v-38.648h-9.821c-2.136,0-3.346-2.349-3.346-5.053
		c0-2.349,0.997-4.911,3.346-4.911H262.186z"/>
	<path style="fill:#E28D40;" d="M288.163,213.719h10.676c2.135,0,3.345,2.064,3.345,4.342c0,1.922-0.996,4.199-3.345,4.199h-10.676
		v12.1h19.075c2.135,0,3.346,2.278,3.346,4.911c0,2.278-0.997,4.769-3.346,4.769H281.9c-2.42,0-4.84-1.139-4.84-3.417v-45.196
		c0-2.278,2.42-3.417,4.84-3.417h25.338c2.349,0,3.346,2.491,3.346,4.769c0,2.633-1.21,4.911-3.346,4.911h-19.075V213.719z"/>
</g>
<path style="fill:#FF525D;" d="M208.98,0v117.156c0,7.742-8.888,12.112-15.019,7.386l-21.083-16.25
	c-3.355-2.586-8.031-2.586-11.386,0l-21.083,16.25c-6.131,4.726-15.019,0.355-15.019-7.386V0H208.98z"/>
<rect x="125.388" style="fill:#EF4152;" width="83.592" height="10.731"/>
<g>
</g>
<g>
</g>
<g>
</g>
<g>
</g>
<g>
</g>
<g>
</g>
<g>
</g>
<g>
</g>
<g>
</g>
<g>
</g>
<g>
</g>
<g>
</g>
<g>
</g>
<g>
</g>
<g>
</g>
</svg>
