<?xml version="1.0" encoding="iso-8859-1"?>
<!-- Generator: Adobe Illustrator 19.0.0, SVG Export Plug-In . SVG Version: 6.00 Build 0)  -->
<svg version="1.1" id="Capa_1" xmlns="http://www.w3.org/2000/svg" xmlns:xlink="http://www.w3.org/1999/xlink" x="0px" y="0px"
	 viewBox="0 0 512 512" style="enable-background:new 0 0 512 512;" xml:space="preserve">
<circle style="fill:#5C5E70;" cx="255.998" cy="255.999" r="255.998"/>
<path style="fill:#FF525D;" d="M512,256.001c0,41.315-9.791,80.363-27.178,114.917c-4.399,8.746-9.289,17.209-14.628,25.349
	c-45.745,69.705-124.593,115.732-214.192,115.732S87.555,465.972,41.809,396.267c-5.339-8.14-10.229-16.603-14.628-25.349
	C9.794,336.363,0.003,297.316,0.003,256.001s9.791-80.363,27.178-114.917c14.858-29.518,35.255-55.776,59.841-77.385
	c45.087-39.654,104.217-63.697,168.98-63.697s123.893,24.043,168.98,63.697c24.586,21.608,44.983,47.866,59.841,77.385
	C502.209,175.638,512,214.685,512,256.001z"/>
<path style="fill:#F9EED7;" d="M484.822,76.394v294.524c-4.399,8.746-9.289,17.209-14.628,25.349
	c-45.745,69.705-124.593,115.732-214.192,115.732S87.555,465.971,41.809,396.267c-5.339-8.14-10.229-16.603-14.628-25.349V76.394
	c0-7.011,5.674-12.695,12.685-12.695h432.261C479.138,63.699,484.822,69.383,484.822,76.394z"/>
<path style="fill:#5C5E70;" d="M470.194,127.959v268.307c-45.745,69.705-124.593,115.732-214.192,115.732
	S87.555,465.971,41.809,396.267V127.959H470.194z"/>
<circle style="fill:#FF525D;" cx="80.091" cy="97.145" r="15.672"/>
<circle style="fill:#FFD15C;" cx="127.111" cy="97.145" r="15.672"/>
<circle style="fill:#4BC999;" cx="176.44" cy="97.145" r="15.672"/>
<path style="fill:#D6C8B0;" d="M420.972,82.251H232.901c-8.223,0-14.889,6.666-14.889,14.889l0,0
	c0,8.223,6.666,14.889,14.889,14.889h188.071c8.223,0,14.889-6.666,14.889-14.889l0,0C435.861,88.916,429.194,82.251,420.972,82.251
	z"/>
<g>
	<path style="fill:#F9EED7;" d="M109.798,306.867l59.655-38.752c1.173-0.939,2.818-1.176,4.463-1.176
		c7.046,0,15.97,7.516,15.97,17.146c0,3.991-1.645,7.515-4.228,9.158l-41.336,26.773l41.336,26.775
		c2.584,1.645,4.228,5.167,4.228,9.159c0,9.63-8.924,17.145-15.97,17.145c-1.645,0-3.288-0.234-4.463-1.173l-59.655-38.752
		c-5.402-3.523-7.28-9.159-7.28-13.152C102.518,316.025,104.397,310.389,109.798,306.867z"/>
	<path style="fill:#F9EED7;" d="M309.666,216.21c0,1.41-0.234,3.052-0.939,4.463l-82.672,169.335
		c-1.645,3.523-6.106,5.87-10.569,5.87c-7.985,0-13.151-6.576-13.151-12.448c0-1.409,0.469-3.052,1.173-4.463l82.436-169.333
		c1.879-3.994,5.636-5.872,9.864-5.872C302.385,203.762,309.666,208.695,309.666,216.21z"/>
	<path style="fill:#F9EED7;" d="M402.205,333.17l-59.654,38.752c-1.176,0.939-2.82,1.173-4.463,1.173
		c-7.046,0-15.97-7.515-15.97-17.145c0-3.992,1.643-7.515,4.227-9.159l41.336-26.775l-41.336-26.773
		c-2.584-1.645-4.227-5.167-4.227-9.158c0-9.63,8.924-17.146,15.97-17.146c1.643,0,3.287,0.236,4.463,1.176l59.654,38.752
		c5.402,3.523,7.28,9.158,7.28,13.151C409.486,324.01,407.607,329.647,402.205,333.17z"/>
</g>
<g>
</g>
<g>
</g>
<g>
</g>
<g>
</g>
<g>
</g>
<g>
</g>
<g>
</g>
<g>
</g>
<g>
</g>
<g>
</g>
<g>
</g>
<g>
</g>
<g>
</g>
<g>
</g>
<g>
</g>
</svg>
