<?xml version="1.0" encoding="iso-8859-1"?>
<!-- Generator: Adobe Illustrator 19.0.0, SVG Export Plug-In . SVG Version: 6.00 Build 0)  -->
<svg version="1.1" id="Capa_1" xmlns="http://www.w3.org/2000/svg" xmlns:xlink="http://www.w3.org/1999/xlink" x="0px" y="0px"
	 viewBox="0 0 512 512" style="enable-background:new 0 0 512 512;" xml:space="preserve">
<path style="fill:#C69A6A;" d="M0,256c0,22.612,2.936,44.544,8.443,65.432c7.555,28.693,19.978,55.411,36.321,79.224
	c2.518,3.668,5.13,7.272,7.826,10.794c7.534,9.843,15.768,19.132,24.618,27.763c11.086,10.825,23.134,20.637,36.028,29.309
	c5.413,3.647,10.982,7.095,16.687,10.324C167.131,499.952,210.16,512,256,512s88.869-12.048,126.077-33.155
	c5.13-2.905,10.156-5.987,15.057-9.226c24.869-16.468,46.696-37.157,64.449-61.053c1.933-2.602,3.824-5.235,5.653-7.91
	c3.814-5.548,7.408-11.264,10.783-17.126c9.665-16.781,17.471-34.753,23.155-53.656C508.217,306.489,512,281.684,512,256
	s-3.783-50.489-10.825-73.874c-19.937-66.267-66.006-121.208-126.224-152.869C351.514,16.938,325.925,8.14,298.904,3.584
	C284.954,1.223,270.618,0,256,0c-42.945,0-83.414,10.574-118.951,29.257c-5.172,2.717-10.23,5.601-15.182,8.662
	C66.675,71.92,25.381,126.307,8.443,190.568C2.936,211.456,0,233.388,0,256z"/>
<path style="fill:#F9EED7;" d="M503.557,60.05v261.381c-7.555,28.693-19.978,55.411-36.321,79.224H44.763
	c-14.733-21.462-26.269-45.286-33.938-70.781V60.05c0-17,13.782-30.793,30.783-30.793h431.167
	C489.775,29.257,503.557,43.05,503.557,60.05z"/>
<path style="fill:#5C5E70;" d="M476.108,42.293H38.275c-8.142,0-14.741,6.6-14.741,14.741v223.053c0,8.142,6.6,14.741,14.741,14.741
	h437.833c8.142,0,14.741-6.6,14.741-14.741V57.035C490.849,48.894,484.25,42.293,476.108,42.293z"/>
<path style="fill:#F9EED7;" d="M503.557,298.297v23.134c-7.555,28.693-19.978,55.411-36.321,79.224H44.763
	c-14.733-21.462-26.269-45.286-33.938-70.781v-31.577H503.557z"/>
<g>
	<path style="fill:#E8DBC4;" d="M269.916,367.117c-15.332,0-27.76-12.429-27.76-27.76c0-4.381,1.019-8.524,2.826-12.209
		c-9.21,4.518-15.551,13.984-15.551,24.933c0,15.332,12.429,27.76,27.76,27.76c10.949,0,20.415-6.341,24.933-15.551
		C278.44,366.099,274.297,367.117,269.916,367.117z"/>
	<rect x="160.413" y="400.656" style="fill:#E8DBC4;" width="193.557" height="75.797"/>
</g>
<rect x="160.413" y="400.656" style="fill:#D6C8B0;" width="193.557" height="20.27"/>
<path style="fill:#F9EED7;" d="M398.764,468.522c-5.413,3.647-10.982,7.095-16.687,10.324H129.923
	c-5.13-2.905-10.156-5.987-15.057-9.226c10.136-15.287,27.376-24.785,46.174-24.785h192.303c11.16,0,21.786,3.354,30.689,9.279
	C389.747,457.916,394.762,462.796,398.764,468.522z"/>
<circle style="fill:#4BC999;" cx="257.191" cy="168.563" r="59.416"/>
<circle style="fill:#FFD15C;" cx="114.563" cy="168.563" r="59.416"/>
<path style="fill:#FF525D;" d="M459.236,168.562c0,6.248-0.961,12.278-2.759,17.941c-7.607,24.043-30.093,41.472-56.654,41.472
	c-32.82,0-59.423-26.603-59.423-59.413c0-32.82,26.603-59.413,59.423-59.413c16.75,0,31.88,6.928,42.663,18.077
	C452.862,137.915,459.236,152.491,459.236,168.562z"/>
<g>
	<path style="fill:#4D4D4D;" d="M370.094,166.816c-2.984,0-5.924-1.212-8.029-3.332c-2.121-2.105-3.333-5.045-3.333-8.029
		s1.212-5.924,3.333-8.029c2.105-2.121,5.045-3.332,8.029-3.332c3,0,5.924,1.212,8.029,3.332c2.121,2.105,3.333,5.045,3.333,8.029
		s-1.212,5.908-3.333,8.029C376.018,165.604,373.094,166.816,370.094,166.816z"/>
	<path style="fill:#4D4D4D;" d="M429.542,166.816c-2.984,0-5.907-1.212-8.029-3.332c-2.12-2.105-3.333-5.045-3.333-8.029
		c0-3,1.213-5.924,3.333-8.029c2.106-2.121,5.045-3.332,8.029-3.332c3,0,5.924,1.212,8.03,3.332c2.12,2.105,3.331,5.029,3.331,8.029
		c0,2.984-1.212,5.908-3.331,8.029C435.465,165.604,432.527,166.816,429.542,166.816z"/>
	<path style="fill:#4D4D4D;" d="M424.689,203.48c-1.356,0-2.714-0.517-3.749-1.553c-5.642-5.641-13.143-8.748-21.122-8.748
		c-7.977,0-15.477,3.108-21.119,8.748c-2.071,2.07-5.426,2.07-7.497,0c-2.071-2.07-2.071-5.427,0-7.498
		c7.643-7.644,17.807-11.854,28.617-11.854c10.812,0,20.974,4.21,28.619,11.854c2.071,2.071,2.071,5.428,0,7.498
		C427.403,202.963,426.047,203.48,424.689,203.48z"/>
	<path style="fill:#4D4D4D;" d="M84.839,166.816c-2.984,0-5.924-1.212-8.029-3.332c-2.121-2.105-3.333-5.045-3.333-8.029
		s1.212-5.924,3.333-8.029c2.105-2.121,5.045-3.332,8.029-3.332c3,0,5.924,1.212,8.029,3.332c2.121,2.105,3.333,5.045,3.333,8.029
		s-1.212,5.908-3.333,8.029C90.763,165.604,87.839,166.816,84.839,166.816z"/>
	<path style="fill:#4D4D4D;" d="M144.286,166.816c-2.984,0-5.907-1.212-8.029-3.332c-2.12-2.105-3.333-5.045-3.333-8.029
		c0-3,1.213-5.924,3.333-8.029c2.107-2.121,5.045-3.332,8.029-3.332c3,0,5.924,1.212,8.03,3.332c2.12,2.105,3.331,5.029,3.331,8.029
		c0,2.984-1.212,5.908-3.331,8.029C150.209,165.604,147.272,166.816,144.286,166.816z"/>
	<path style="fill:#4D4D4D;" d="M227.468,166.816c-2.984,0-5.924-1.212-8.029-3.332c-2.121-2.105-3.333-5.045-3.333-8.029
		s1.212-5.924,3.333-8.029c2.105-2.121,5.045-3.332,8.029-3.332c3,0,5.924,1.212,8.029,3.332c2.121,2.105,3.333,5.045,3.333,8.029
		s-1.212,5.908-3.333,8.029C233.392,165.604,230.468,166.816,227.468,166.816z"/>
	<path style="fill:#4D4D4D;" d="M286.914,166.816c-2.984,0-5.907-1.212-8.029-3.332c-2.12-2.105-3.333-5.045-3.333-8.029
		c0-3,1.213-5.924,3.333-8.029c2.107-2.121,5.045-3.332,8.029-3.332c3,0,5.924,1.212,8.03,3.332c2.12,2.105,3.331,5.029,3.331,8.029
		c0,2.984-1.212,5.908-3.331,8.029C292.838,165.604,289.901,166.816,286.914,166.816z"/>
	<path style="fill:#4D4D4D;" d="M232.325,182.575c1.356,0,2.714,0.517,3.749,1.553c5.642,5.641,13.143,8.748,21.122,8.748
		c7.977,0,15.477-3.108,21.119-8.748c2.071-2.07,5.426-2.07,7.497,0s2.071,5.427,0,7.498c-7.643,7.644-17.807,11.854-28.617,11.854
		c-10.812,0-20.974-4.21-28.619-11.854c-2.071-2.071-2.071-5.428,0-7.498C229.612,183.093,230.968,182.575,232.325,182.575z"/>
	<circle style="fill:#4D4D4D;" cx="114.563" cy="189.409" r="19.853"/>
</g>
<g>
</g>
<g>
</g>
<g>
</g>
<g>
</g>
<g>
</g>
<g>
</g>
<g>
</g>
<g>
</g>
<g>
</g>
<g>
</g>
<g>
</g>
<g>
</g>
<g>
</g>
<g>
</g>
<g>
</g>
</svg>
