<svg height="512" viewBox="0 0 512 512" width="512" xmlns="http://www.w3.org/2000/svg"><g id="outline"><path fill="#fff" d="m400 216c0-79.40186-64.59814-144-144-144s-144 64.59814-144 144a153.735 153.735 0 0 0 71.19775 129.69971l16.80225 10.69189v99.6084a7.95332 7.95332 0 0 0 1.60687 4.79468l-.00677.00512 24 32a7.99927 7.99927 0 0 0 6.3999 3.2002h48a7.99927 7.99927 0 0 0 6.3999-3.2002l24-32-.00683-.00512a7.953 7.953 0 0 0 1.60693-4.79468v-99.6084l16.80225-10.69238a153.73337 153.73337 0 0 0 71.19775-129.69922zm-104 168v10.23413l-80 26.6665v-36.90063zm-80 53.76587 80-26.6665v36.90063h-80zm60 42.23413h-40l-12.00012-16h64.00024zm44.2124-147.79932-20.50732 13.04981a8.00055 8.00055 0 0 0 -3.70508 6.74951v16h-16v-69.67041l54.74951-86.03467a8.00028 8.00028 0 0 0 -1.09277-9.95166l-24-24a8 8 0 0 0 -11.31348 0l-18.34326 18.34274-18.34326-18.34278a8 8 0 0 0 -11.31348 0l-18.34326 18.34278-18.34326-18.34278-11.31348 11.31348 24 24a8 8 0 0 0 11.31348 0l18.34326-18.3427 18.34326 18.34278a8 8 0 0 0 11.31348 0l18.34326-18.34278 13.80518 13.80518-52.55469 82.58594a8.00343 8.00343 0 0 0 -1.25049 4.29488v72h-48v-16a8.00055 8.00055 0 0 0 -3.70508-6.74951l-20.50732-13.04932a137.092 137.092 0 0 1 -63.7876-116.20117 128 128 0 0 1 256 0 137.09056 137.09056 0 0 1 -63.7876 116.20068z"/><path fill="#fff" d="m248 16h16v32h-16z"/><path fill="#fff" d="m152 41.723h16v32h-16z" transform="matrix(.866 -.5 .5 .866 -7.426 87.733)"/><path fill="#fff" d="m81.723 112h16v32h-16z" transform="matrix(.5 -.866 .866 .5 -65.99 141.703)"/><path fill="#fff" d="m48 216h32v16h-32z"/><path fill="#fff" d="m73.723 312h32v16h-32z" transform="matrix(.866 -.5 .5 .866 -147.979 87.733)"/><path fill="#fff" d="m144 382.277h32v16h-32z" transform="matrix(.5 -.866 .866 .5 -257.99 333.703)"/><path fill="#fff" d="m344 374.277h16v32h-16z" transform="matrix(.866 -.5 .5 .866 -147.979 228.287)"/><path fill="#fff" d="m414.277 304h16v32h-16z" transform="matrix(.5 -.866 .866 .5 -65.989 525.703)"/><path fill="#fff" d="m432 216h32v16h-32z"/><path fill="#fff" d="m406.277 120h32v16h-32z" transform="matrix(.866 -.5 .5 .866 -7.426 228.287)"/><path fill="#fff" d="m336 49.723h32v16h-32z" transform="matrix(.5 -.866 .866 .5 126.011 333.703)"/></g></svg>