<?xml version="1.0"?>
<svg xmlns="http://www.w3.org/2000/svg" viewBox="0 0 512 512" width="512" height="512"><g id="outline"><path fill="#fff" d="M53.47266,253.61914,32.12158,374.60938A8.00034,8.00034,0,0,0,40,384H50.725l21.922,51.15137A8.00006,8.00006,0,0,0,80,440v48a8.00008,8.00008,0,0,0,8,8H280a8.00008,8.00008,0,0,0,8-8V434.80688l30.24707-37.80883a8.00087,8.00087,0,0,0-.59033-10.65528l-8-8a8.00008,8.00008,0,0,0-9.23438-1.498L270.11133,392h-2.79785l2.34326-2.34277A8.00076,8.00076,0,0,0,272,384V368a8.00008,8.00008,0,0,0-8-8H240a8.00222,8.00222,0,0,0-4.7998,1.59961l-13.4972,10.1228L200.38281,265.12305l6.77246-13.54493a8.033,8.033,0,0,0,.33313-.77587l2.85486,2.855a8.00012,8.00012,0,0,0,13.2461-3.127l12.9519-38.85571,31.57349,17.54126,7.7705-13.98633-38.30468-21.28125-11.728-17.59131A63.85637,63.85637,0,0,0,248,128V56a40.04552,40.04552,0,0,0-40-40H160a40.04552,40.04552,0,0,0-40,40v72a63.85637,63.85637,0,0,0,22.14746,48.35693l-11.728,17.59131-56.981,31.65625A39.83623,39.83623,0,0,0,53.47266,253.61914ZM96,480V440H272v40ZM242.6665,376H256v4.68652l-13.65674,13.65625A8.0001,8.0001,0,0,0,248,408h24a7.99583,7.99583,0,0,0,3.57764-.84473l23.42187-11.71093L276.15479,424H85.27539L68.13232,384h35.2544l103.397,15.90723a7.98624,7.98624,0,0,0,6.01611-1.50684Zm-35.15234,6.36377-1.62305,1.21728L161.605,376.76782,182.55859,272h2.88282ZM192,246.11133,187.05566,256h-6.11132L176,246.11133V235.314l8-8,8,8ZM152.58728,189.541l20.69251,25.86523-17.7837,17.78418-10.66943-32.00855ZM184,203.19312l-9.52417-11.90528a64.04248,64.04248,0,0,0,19.04834,0Zm28.50391,29.99731-17.7837-17.78418L215.41272,189.541l7.76062,11.64086ZM232,56v3.05566l-16.33813-8.16894A39.79285,39.79285,0,0,0,207.978,32H208A24.02718,24.02718,0,0,1,232,56Zm-96,0a24.02718,24.02718,0,0,1,24-24h16a24.03959,24.03959,0,0,1,23.63477,19.81543A86.95663,86.95663,0,0,1,155.15576,64H136Zm0,72V80h19.15576a102.89546,102.89546,0,0,0,53.29663-14.82959L232,76.94409V128a48,48,0,0,1-96,0ZM81.209,239.59082l50.24976-27.91626,12.9519,38.85571a8.00027,8.00027,0,0,0,13.2461,3.127l2.85486-2.855a8.033,8.033,0,0,0,.33313.77587l6.77246,13.54493L145.7749,374.33252,112,369.13647V320H96v48H49.53516L69.22949,256.40039A23.9034,23.9034,0,0,1,81.209,239.59082Z"/><path fill="#fff" d="M168,152h8a24.0275,24.0275,0,0,0,24-24v-8H184v8a8.00917,8.00917,0,0,1-8,8h-8Z"/><circle cx="160" cy="104" r="8"/><circle cx="208" cy="104" r="8"/><path fill="#fff" d="M408,200H312a8.00035,8.00035,0,0,0-5.65674,2.34277l-64,64a8.00026,8.00026,0,0,0-.78369,10.40235l112,152a7.99928,7.99928,0,0,0,12.88086,0l112-152a8.00026,8.00026,0,0,0-.78369-10.40235l-64-64A8.00035,8.00035,0,0,0,408,200Zm-86.37036,64L360,220.14844,398.37036,264Zm82.89722,16L360,400.85864,315.47314,280Zm-26.89722-64H400.9375l3.88477,31.07715Zm-62.45191,31.07715L319.0625,216h23.30786ZM296.9375,264H267.314l33.85547-33.856Zm1.48413,16,34.58972,93.88647L263.83154,280Zm123.15674,0h34.59009l-69.17981,93.88647Zm1.48413-16-4.23193-33.856L452.686,264Z"/></g></svg>
