<?xml version="1.0"?>
<svg xmlns="http://www.w3.org/2000/svg" viewBox="0 0 512 512" width="512" height="512"><g id="outline"><path fill="#fff" d="M24,160H136.24182C136.095,162.65894,136,165.32471,136,168a7.99977,7.99977,0,0,0,8,8H280a8,8,0,0,0,7.58936-10.52979l-32.85-98.55065A23.98576,23.98576,0,0,0,240.00049,24h-80.9043A95.80768,95.80768,0,0,0,79.21973,66.74854L75.71857,72H24a7.99977,7.99977,0,0,0-8,8v72A7.99977,7.99977,0,0,0,24,160Zm128.24805,0a127.564,127.564,0,0,1,16.88128-56.00439L191.99609,104h.0044a23.99115,23.99115,0,0,0,22.62274-32.00146l24.94409.001L268.90039,160ZM92.53223,75.624A79.8397,79.8397,0,0,1,159.09619,40h80.9043A7.99976,7.99976,0,0,1,240,55.99951l-55.99707-.002V56H152V72h40.001a8,8,0,0,1-.00049,16H191.999l-31.99609-.00635h-.00147a7.99954,7.99954,0,0,0-6.65673,3.563A45.81075,45.81075,0,0,1,115.14941,112H104v16h11.14941a61.826,61.826,0,0,0,28.76209-7.09668A143.60668,143.60668,0,0,0,138.01575,144H88V82.42236ZM32,88H72v56H32Z"/><path fill="#fff" d="M472.00049,184a23.88569,23.88569,0,0,0-8.01862,1.38245c.00428-.46106.01813-.92054.01813-1.38245,0-79.40186-64.59814-144-144-144a143.94271,143.94271,0,0,0-45.54639,7.34961,7.99922,7.99922,0,0,0-5.063,10.12012L311.12207,182.665,234.43018,290.03027a7.99992,7.99992,0,0,0,1.855,11.15625A143.03846,143.03846,0,0,0,320,328a144.58207,144.58207,0,0,0,32-3.57788V488a7.99977,7.99977,0,0,0,8,8h80a7.99977,7.99977,0,0,0,8-8V372.28125l5.251-3.501A95.807,95.807,0,0,0,496,288.90381v-80.9043A24.02666,24.02666,0,0,0,472.00049,184ZM252.23975,292.62451l74.27-103.97461a7.99886,7.99886,0,0,0,1.07959-7.17969l-40.40918-121.228A128.12331,128.12331,0,0,1,448,184a127.001,127.001,0,0,1-9.32776,48.03882A23.99651,23.99651,0,0,0,416,256.00391l.00244,12.64892a128.0573,128.0573,0,0,1-163.76269,23.97168ZM432,480H368V376h64Zm48-191.09619a79.839,79.839,0,0,1-35.62451,66.564L437.57751,360H368V319.7937a143.21035,143.21035,0,0,0,30.87378-15.28259A61.83481,61.83481,0,0,0,392,332.85059V344h16V332.85059a45.81075,45.81075,0,0,1,20.44336-38.19532,7.99971,7.99971,0,0,0,3.563-6.6582L432,256.001a8,8,0,0,1,16-.00342V296h16V263.99707h.00244l-.00195-55.99658A7.99976,7.99976,0,1,1,480,207.99951Z"/><path fill="#fff" d="M24,496H96a8,8,0,0,0,7.26367-4.64746L150.66553,388.648l62.99121-62.99121A7.99877,7.99877,0,0,0,216,320V280.96094l54.50977-76.311A8,8,0,0,0,264,192H128a7.99977,7.99977,0,0,0-8,8,143.39529,143.39529,0,0,0,5.16815,38.12415L110.009,249.49353l-3.98749-27.9115A25.13707,25.13707,0,0,0,56,225.13721V341.436L17.49023,395.3501A7.99955,7.99955,0,0,0,16,400v88A7.99977,7.99977,0,0,0,24,496ZM248.4541,208l-65.22265,91.30859A128.51161,128.51161,0,0,1,136.252,208ZM81.13721,216a9.18242,9.18242,0,0,1,9.04541,7.84473l5.89795,41.28662a7.99679,7.99679,0,0,0,3.11963,5.26855A72.34446,72.34446,0,0,1,128,328h16a88.48735,88.48735,0,0,0-27.19879-63.60107l13.78192-10.33643a144.46878,144.46878,0,0,0,49.69958,63.12207,7.99913,7.99913,0,0,0,11.167-1.85449L200,303.36011v13.32641l-57.57959,57.57959L72,339.05591V225.13721A9.1478,9.1478,0,0,1,81.13721,216ZM32,402.564,66.53662,354.2124l66.95044,33.47522L90.88135,480H32Z"/></g></svg>
