<?xml version="1.0" encoding="iso-8859-1"?>
<!-- Generator: Adobe Illustrator 19.0.0, SVG Export Plug-In . SVG Version: 6.00 Build 0)  -->
<svg version="1.1" id="Capa_1" xmlns="http://www.w3.org/2000/svg" xmlns:xlink="http://www.w3.org/1999/xlink" x="0px" y="0px"
	 viewBox="0 0 512 512" style="enable-background:new 0 0 512 512;" xml:space="preserve">
<circle style="fill:#51B0E0;" cx="256" cy="256" r="256"/>
<path style="fill:#FFCF4B;" d="M424.535,448.699c-45.025,39.414-103.988,63.3-168.532,63.3s-123.507-23.886-168.532-63.3
	c15.067-41.535,51.785-72.673,96.507-79.809c6.374-1.014,12.925-1.546,19.592-1.546h104.866c6.677,0,13.218,0.533,19.602,1.546
	C372.76,376.016,409.478,407.164,424.535,448.699z"/>
<path style="fill:#EFAA3A;" d="M114.678,448.699c15.067-41.535,51.785-72.673,96.507-79.809c6.374-1.014,12.925-1.546,19.592-1.546
	h-27.209c-6.666,0-13.218,0.533-19.592,1.546c-44.722,7.137-81.439,38.275-96.507,79.809c6.864,6.008,14.055,11.651,21.536,16.907
	C111.087,459.78,113.028,454.106,114.678,448.699z"/>
<path style="fill:#6E7789;" d="M135.382,234.747L135.382,234.747c-2.847,0-5.156-2.308-5.156-5.156v-3.608
	c0-2.847,2.308-5.156,5.156-5.156l0,0c2.847,0,5.156,2.308,5.156,5.156v3.608C140.538,232.439,138.23,234.747,135.382,234.747z"/>
<path style="fill:#EFAA3A;" d="M328.037,368.888v3.393c0,39.723-32.315,72.037-72.026,72.037c-11.887,0-23.67-2.966-34.079-8.563
	c-6.128-3.266-11.829-7.501-16.86-12.534c-11.875-11.875-19.262-27.594-20.797-44.27c-0.208-2.354-0.3-4.559-0.3-6.671v-3.393
	c6.382-1.016,12.925-1.546,19.596-1.546h104.87C315.111,367.341,321.655,367.872,328.037,368.888z"/>
<path style="fill:#F9C1A5;" d="M308.416,320.45v51.829c0,28.955-23.462,52.418-52.407,52.418c-8.967,0-17.404-2.251-24.778-6.22
	c-4.547-2.423-8.679-5.516-12.291-9.128c-8.414-8.414-13.976-19.665-15.13-32.199c-0.139-1.604-0.219-3.232-0.219-4.87v-51.829
	h104.825V320.45z"/>
<g>
	<path style="fill:#E5AB91;" d="M308.416,335.454v26.763c-16.18,8.482-34.599,13.295-54.137,13.295
		c-1.858,0-3.716-0.046-5.563-0.139c-0.265-0.011-0.519-0.023-0.773-0.023c-9.187,0-16.711,7.524-16.711,16.803v26.324
		c-4.547-2.423-8.679-5.516-12.291-9.128c-8.414-8.414-13.976-19.665-15.13-32.199c-0.139-1.604-0.219-3.232-0.219-4.87v-36.826
		H308.416z"/>
	<circle style="fill:#E5AB91;" cx="154.384" cy="221.968" r="32.392"/>
	<circle style="fill:#E5AB91;" cx="357.627" cy="221.968" r="32.392"/>
</g>
<path style="fill:#F9C1A5;" d="M256.004,0L256.004,0c-64.456,0-116.708,52.251-116.708,116.707v130.558
	c0,64.456,52.251,116.707,116.707,116.707l0,0c64.456,0,116.707-52.251,116.707-116.707V116.707C372.711,52.251,320.46,0,256.004,0z
	"/>
<path style="fill:#E5AB91;" d="M310.638,161.122c-7.414,0-15.49-0.556-24.04-1.144c-9.807-0.675-19.949-1.373-30.598-1.373
	c-10.645,0-20.788,0.698-30.598,1.373c-8.55,0.588-16.626,1.143-24.037,1.144c-10.427,0-23.609-0.96-33.07-8.451
	c-8.982-7.112-13.348-18.876-13.348-35.966c0-26.954,10.523-52.315,29.632-71.413c6.015-6.015,12.756-11.254,20.033-15.567
	c15.508-9.2,33.279-14.063,51.387-14.063c18.109,0,35.879,4.863,51.389,14.063c30.632,18.159,49.663,51.487,49.663,86.977
	C357.052,155.844,333.589,161.122,310.638,161.122z"/>
<path style="fill:#535B70;" d="M350.786,116.704c0,31.932-15.872,38.149-40.145,38.149c-15.454,0-34.304-2.518-54.638-2.518
	c-52.266,0-94.783,16.635-94.783-35.631c0-26.122,10.627-49.821,27.794-66.978c5.611-5.611,11.922-10.533,18.798-14.608
	c14.127-8.38,30.605-13.187,48.191-13.187s34.064,4.807,48.191,13.187C332.061,51.638,350.786,82.034,350.786,116.704z"/>
<g>
	<path style="fill:#E5AB91;" d="M288.741,222.559c0,0-2.398,11.746,19.065,20.075c0.963,0.374,2.06,0.155,2.79-0.576l0,0
		c1.138-1.138,0.984-3.038-0.343-3.948c-2.915-1.998-6.932-5.945-5.537-11.975"/>
	<path style="fill:#E5AB91;" d="M230.673,222.559c0,0,2.398,11.746-19.065,20.075c-0.963,0.374-2.059,0.155-2.79-0.576l0,0
		c-1.138-1.138-0.984-3.038,0.343-3.948c2.915-1.998,6.932-5.945,5.537-11.975"/>
	<path style="fill:#E5AB91;" d="M230.673,216.415c-0.65,5.379-5.398,9.328-10.816,9.328H191.7c-2.94,0-5.604-1.189-7.533-3.118
		c-2.208-2.214-3.457-5.396-3.039-8.856c0.65-5.379,5.398-9.328,10.816-9.328h28.157c2.94,0,5.604,1.189,7.533,3.118
		C229.843,209.774,231.091,212.955,230.673,216.415z"/>
</g>
<path style="fill:#FFFFFF;" d="M230.673,223.883c-0.65,5.379-5.398,9.328-10.816,9.328H191.7c-2.94,0-5.604-1.189-7.533-3.118
	c-2.208-2.214-3.457-5.396-3.039-8.856c0.65-5.379,5.398-9.328,10.816-9.328h28.157c2.94,0,5.604,1.189,7.533,3.118
	C229.843,217.242,231.091,220.423,230.673,223.883z"/>
<path style="fill:#E5AB91;" d="M327.792,204.442h-28.4c-5.882,0-10.65,4.768-10.65,10.65l0,0c0,5.882,4.768,10.65,10.65,10.65h28.4
	c5.882,0,10.65-4.768,10.65-10.65l0,0C338.441,209.209,333.674,204.442,327.792,204.442z"/>
<path style="fill:#FFFFFF;" d="M327.792,211.909h-28.4c-5.882,0-10.65,4.768-10.65,10.65l0,0c0,5.882,4.768,10.65,10.65,10.65h28.4
	c5.882,0,10.65-4.768,10.65-10.65l0,0C338.441,216.677,333.674,211.909,327.792,211.909z"/>
<path style="fill:#535B70;" d="M337.004,183.164h-46.825c-3.315,0-6.003,2.687-6.003,6.003l0,0c0,3.315,2.687,6.003,6.003,6.003
	h46.825c3.315,0,6.003-2.687,6.003-6.003l0,0C343.007,185.852,340.319,183.164,337.004,183.164z"/>
<path style="fill:#51B0E0;" d="M220.067,219.045c0,7.822-6.343,14.166-14.166,14.166c-7.822,0-14.166-6.343-14.166-14.166
	c0-2.604,0.704-5.042,1.935-7.136h24.461C219.363,214.003,220.067,216.441,220.067,219.045z"/>
<g>
	<circle style="fill:#6EC6EA;" cx="210.923" cy="218.823" r="5.733"/>
	<circle style="fill:#6EC6EA;" cx="200.38" cy="226.137" r="3.353"/>
</g>
<path style="fill:#51B0E0;" d="M327.756,219.045c0,7.822-6.343,14.166-14.166,14.166c-7.822,0-14.166-6.343-14.166-14.166
	c0-2.604,0.704-5.042,1.935-7.136h24.461C327.052,214.003,327.756,216.441,327.756,219.045z"/>
<g>
	<circle style="fill:#6EC6EA;" cx="318.61" cy="218.823" r="5.733"/>
	<circle style="fill:#6EC6EA;" cx="308.067" cy="226.137" r="3.353"/>
</g>
<g>
	<path style="fill:#E5AB91;" d="M182.688,183.164c-3.305,0-6.141,2.586-6.2,5.89c-0.062,3.367,2.649,6.115,6.002,6.115h32.897
		c13.062,0,23.65,10.589,23.65,23.65v58.596h5.96c7.656,0,13.863-6.207,13.863-13.863v-62.329c0-9.975-8.086-18.061-18.061-18.061
		h-58.11V183.164z"/>
	<path style="fill:#E5AB91;" d="M276.024,298.763c-13.001,4.283-27.042,4.283-40.043,0c-3.474-1.133-7.443,0.224-8.988,3.476l0,0
		c-1.544,3.239,0.588,7.466,4.915,8.888c15.645,5.156,32.543,5.156,48.189,0c4.326-1.422,6.458-5.649,4.915-8.888l0,0
		C283.468,298.987,279.499,297.631,276.024,298.763z"/>
	<path style="fill:#E5AB91;" d="M261.493,321.574h-10.979c-2.799,0-5.069,2.27-5.069,5.069l0,0c0,2.799,2.27,5.069,5.069,5.069
		h10.979c2.799,0,5.069-2.27,5.069-5.069l0,0C266.562,323.843,264.292,321.574,261.493,321.574z"/>
</g>
<path style="fill:#535B70;" d="M229.513,183.164h-46.825c-3.315,0-6.003,2.687-6.003,6.003l0,0c0,3.315,2.687,6.003,6.003,6.003
	h46.825c3.315,0,6.003-2.687,6.003-6.003l0,0C235.516,185.852,232.828,183.164,229.513,183.164z"/>
<path style="fill:#E5AB91;" d="M161.224,247.265V116.707c0-60.758,46.43-110.663,105.744-116.191C263.357,0.18,259.702,0,256.004,0
	l0,0c-64.456,0-116.707,52.251-116.707,116.707v130.558c0,64.456,52.251,116.707,116.707,116.707l0,0
	c3.698,0,7.354-0.18,10.964-0.516C207.655,357.928,161.224,308.022,161.224,247.265z"/>
<path style="fill:#6E7789;" d="M209.244,71.434h98.891v57.508h-98.891c-15.88,0-28.755-12.873-28.755-28.755l0,0
	C180.49,84.309,193.364,71.434,209.244,71.434z"/>
<path style="fill:#42495B;" d="M301.878,122.686V77.691h-92.634c-12.405,0-22.498,10.093-22.498,22.498s10.093,22.498,22.498,22.498
	h92.634V122.686z"/>
<path style="fill:#3CBC9A;" d="M331.516,100.188c0,4.064-0.751,7.953-2.127,11.536c-4.636,12.125-16.383,20.736-30.144,20.736
	c-17.822,0-32.271-14.45-32.271-32.271c0-13.761,8.614-25.511,20.745-30.147c3.58-1.373,7.465-2.124,11.525-2.124
	C317.07,67.917,331.516,82.367,331.516,100.188z"/>
<path style="fill:#4ACC9A;" d="M331.516,100.188c0,4.064-0.751,7.953-2.127,11.536c-5.407,7.758-14.397,12.832-24.572,12.832
	c-16.534,0-29.939-13.406-29.939-29.939c0-10.178,5.081-19.172,12.843-24.575c3.58-1.373,7.465-2.124,11.525-2.124
	C317.07,67.917,331.516,82.367,331.516,100.188z"/>
<g>
	<path style="fill:#3CBC9A;" d="M292.05,91.525c-3.243,0-5.759,1.505-5.759,5.548v6.231c0,4.044,2.516,5.548,5.759,5.548
		c3.246,0,5.786-1.505,5.786-5.548v-6.231C297.836,93.029,295.297,91.525,292.05,91.525z M294.167,103.304
		c0,1.624-0.8,2.351-2.117,2.351s-2.091-0.727-2.091-2.351v-6.231c0-1.62,0.774-2.351,2.091-2.351s2.117,0.731,2.117,2.351V103.304z
		"/>
	<path style="fill:#3CBC9A;" d="M310.365,91.525c-0.349,0-0.698,0.046-0.995,0.152c-0.487,0.165-0.84,0.474-0.84,0.955v7.992
		l-3.807-7.264c-0.895-1.716-1.39-1.834-2.703-1.834c-0.918,0-1.834,0.352-1.834,1.13v14.931c0,0.75,0.915,1.126,1.834,1.126
		c0.915,0,1.834-0.375,1.834-1.126v-7.997l4.465,8.133c0.448,0.823,1.198,0.987,2.045,0.987c0.918,0,1.834-0.375,1.834-1.126V92.631
		C312.2,91.854,311.284,91.525,310.365,91.525z"/>
</g>
<g>
</g>
<g>
</g>
<g>
</g>
<g>
</g>
<g>
</g>
<g>
</g>
<g>
</g>
<g>
</g>
<g>
</g>
<g>
</g>
<g>
</g>
<g>
</g>
<g>
</g>
<g>
</g>
<g>
</g>
</svg>
