<?xml version="1.0" encoding="iso-8859-1"?>
<!-- Generator: Adobe Illustrator 19.0.0, SVG Export Plug-In . SVG Version: 6.00 Build 0)  -->
<svg version="1.1" id="Capa_1" xmlns="http://www.w3.org/2000/svg" xmlns:xlink="http://www.w3.org/1999/xlink" x="0px" y="0px"
	 viewBox="0 0 512 512" style="enable-background:new 0 0 512 512;" xml:space="preserve">
<path style="fill:#FFD15C;" d="M511.612,256.388c0,54.357-16.964,104.759-45.906,146.189C419.508,468.723,342.804,512,256,512
	S92.492,468.723,46.294,402.577c-20.251-28.994-34.638-62.38-41.451-98.437c-2.932-15.472-4.455-31.435-4.455-47.752
	c0-10.861,0.678-21.565,1.993-32.061C18.156,98.284,125.69,0.776,256,0.776c55.838,0,107.482,17.903,149.528,48.274
	c44.8,32.364,78.687,78.895,95.108,133.023C507.772,205.589,511.612,230.545,511.612,256.388z"/>
<rect x="165.386" y="116.862" style="fill:#494B5B;" width="122.589" height="38.853"/>
<g>
	<path style="fill:#FF525D;" d="M420.57,120.25h-56.605c-8.569,0-15.514,6.946-15.514,15.514v12.922h87.634v-12.922
		C436.085,127.196,429.139,120.25,420.57,120.25z"/>
	<path style="fill:#FF525D;" d="M95.213,100.694H80.84c-5.058,0-9.159,4.1-9.159,9.159v38.833h32.69v-38.833
		C104.372,104.796,100.272,100.694,95.213,100.694z"/>
</g>
<g>
	<path style="fill:#EF4152;" d="M92.664,100.694H80.84c-5.058,0-9.159,4.1-9.159,9.159v38.833h11.824v-38.833
		C83.506,104.796,87.606,100.694,92.664,100.694z"/>
	<path style="fill:#EF4152;" d="M394.855,120.25h-30.889c-8.569,0-15.514,6.945-15.514,15.514v12.922h30.889v-12.922
		C379.341,127.196,386.287,120.25,394.855,120.25z"/>
</g>
<g>
	<path style="fill:#5C5E70;" d="M465.706,170.649v231.929C419.508,468.723,342.804,512,256,512S92.492,468.723,46.294,402.577
		V170.649c0-12.415,10.068-22.483,22.483-22.483h374.435C455.638,148.165,465.706,158.233,465.706,170.649z"/>
	<path style="fill:#5C5E70;" d="M308.076,124.424H145.293c-12.628,0-22.865-10.237-22.865-22.865V22.865
		C122.428,10.237,132.665,0,145.293,0h162.783c12.628,0,22.865,10.237,22.865,22.865v78.693
		C330.941,114.185,320.704,124.424,308.076,124.424z"/>
</g>
<path style="fill:#494B5B;" d="M164.783,106.167c-11.371,0-20.623-9.251-20.623-20.623V35.759c0-11.371,9.251-20.623,20.623-20.623
	h123.804c11.371,0,20.623,9.251,20.623,20.623v49.785c0,11.371-9.251,20.623-20.623,20.623
	C288.587,106.167,164.783,106.167,164.783,106.167z"/>
<path style="fill:#34ABE0;" d="M288.587,26.613H164.783c-5.052,0-9.146,4.095-9.146,9.146v49.786c0,5.052,4.095,9.146,9.146,9.146
	h123.804c5.052,0,9.146-4.095,9.146-9.146V35.759C297.733,30.708,293.638,26.613,288.587,26.613z"/>
<path style="fill:#78CAEF;" d="M282.575,57.049h-64.973c-3.377,0-6.116-2.738-6.116-6.116v-9.33c0-3.377,2.738-6.116,6.116-6.116
	h64.973c3.377,0,6.116,2.738,6.116,6.116v9.33C288.691,54.312,285.953,57.049,282.575,57.049z"/>
<circle style="fill:#797B89;" cx="254.955" cy="345.493" r="149.33"/>
<circle style="fill:#494B5B;" cx="254.955" cy="345.493" r="132.616"/>
<path style="fill:#279FC9;" d="M348.73,345.487c0,10.078-1.586,19.781-4.538,28.879c-12.165,37.664-47.523,64.894-89.235,64.894
	c-51.79,0-93.773-41.983-93.773-93.773c0-41.722,27.251-77.08,64.925-89.245c9.087-2.942,18.78-4.528,28.848-4.528
	C306.747,251.714,348.73,293.697,348.73,345.487z"/>
<path style="fill:#34ABE0;" d="M348.73,345.487c0,10.078-1.586,19.781-4.538,28.879c-15.389,20.105-39.646,33.073-66.929,33.073
	c-46.542,0-84.258-37.716-84.258-84.248c0-27.293,12.979-51.561,33.104-66.949c9.087-2.942,18.78-4.528,28.848-4.528
	C306.747,251.714,348.73,293.697,348.73,345.487z"/>
<g>
	<circle style="fill:#78CAEF;" cx="296.687" cy="321.351" r="22.953"/>
	<circle style="fill:#78CAEF;" cx="263.51" cy="294.444" r="15.439"/>
</g>
<path style="fill:#494B5B;" d="M380.553,232.496c-13.715,0-24.875-11.158-24.875-24.875V199.3c0-13.715,11.158-24.875,24.875-24.875
	h45.11c13.715,0,24.875,11.158,24.875,24.875v8.321c0,13.715-11.158,24.875-24.875,24.875H380.553z"/>
<path style="fill:#34ABE0;" d="M425.663,221.02h-45.11c-7.399,0-13.398-5.998-13.398-13.398V199.3
	c0-7.399,5.998-13.398,13.398-13.398h45.11c7.399,0,13.398,5.998,13.398,13.398v8.321
	C439.061,215.022,433.062,221.02,425.663,221.02z"/>
<path style="fill:#78CAEF;" d="M425.539,203.461h-30.256c-3.745,0-6.782-3.036-6.782-6.782l0,0c0-3.745,3.036-6.782,6.782-6.782
	h30.256c3.746,0,6.782,3.036,6.782,6.782l0,0C432.32,200.425,429.284,203.461,425.539,203.461z"/>
<circle style="fill:#494B5B;" cx="115.151" cy="215.976" r="32.806"/>
<circle style="fill:#FF525D;" cx="115.151" cy="215.976" r="22.605"/>
<circle style="fill:#FF6E7C;" cx="124.363" cy="213.472" r="8.378"/>
<g>
</g>
<g>
</g>
<g>
</g>
<g>
</g>
<g>
</g>
<g>
</g>
<g>
</g>
<g>
</g>
<g>
</g>
<g>
</g>
<g>
</g>
<g>
</g>
<g>
</g>
<g>
</g>
<g>
</g>
</svg>
