<?xml version="1.0" encoding="iso-8859-1"?>
<!-- Generator: Adobe Illustrator 19.0.0, SVG Export Plug-In . SVG Version: 6.00 Build 0)  -->
<svg version="1.1" id="Capa_1" xmlns="http://www.w3.org/2000/svg" xmlns:xlink="http://www.w3.org/1999/xlink" x="0px" y="0px"
	 viewBox="0 0 512 512" style="enable-background:new 0 0 512 512;" xml:space="preserve">
<path style="fill:#5C5E70;" d="M511.84,256c0,6.318-0.23,12.593-0.679,18.796c-2.047,28.132-8.636,55-19.047,79.884
	c-7.811,18.671-17.783,36.224-29.583,52.347c-4.563,6.224-9.398,12.238-14.484,18.013c-8.406,9.534-17.501,18.431-27.213,26.628
	c-11.831,9.983-24.592,18.901-38.115,26.628c-37.352,21.344-80.604,33.541-126.718,33.541c-12.197,0-24.184-0.856-35.932-2.506
	c-45.925-6.453-87.935-25.103-122.656-52.567c-14.985-11.842-28.602-25.333-40.589-40.193c-6.829-8.448-13.116-17.334-18.828-26.628
	c-14.933-24.247-25.928-51.167-32.1-79.884c-1.88-8.688-3.31-17.533-4.26-26.524C0.667,274.493,0.166,265.304,0.166,256
	c0-141.295,114.542-255.837,255.837-255.837S511.84,114.705,511.84,256z"/>
<path style="fill:#34ABE0;" d="M426.578,318.587c-0.574,93.717-76.724,169.515-170.571,169.515
	c-93.86,0-170.011-75.798-170.584-169.515c25.066,14.463,54.149-1.069,85.161-1.069c31.131,0,60.304-30.643,85.422-45.211
	c25.118,14.567,54.292,45.211,85.422,45.211C372.441,317.518,401.524,333.05,426.578,318.587z"/>
<path style="fill:#FF525D;" d="M512,170.748c0,63.199-34.365,118.366-85.422,147.839c0-0.352,0-0.717,0-1.069
	c0-63.187-67.385-85.318-118.443-114.805c-0.392-62.638-1.5-150.304-52.127-179.648C281.125,8.498,310.299,0.164,341.43,0.164
	C435.628,0.164,512,76.535,512,170.748z"/>
<path style="fill:#FFD15C;" d="M256.006,23.065c-50.628,29.344,9.086,139.654,8.694,202.292
	c-51.058,29.473-179.278,28.961-179.278,92.161c0,0.352,0,0.717,0,1.069C34.365,289.113,0,233.947,0,170.748
	C0,76.535,76.371,0.164,170.584,0.164C201.715,0.164,230.888,8.497,256.006,23.065z"/>
<path style="fill:#F9EED7;" d="M256.006,131.457c31.013,0,60.096,23.757,85.161,38.221c0,0.352,0,0.717,0,1.069
	c0,31.541-3.288,77.082-18.215,102.429c-14.926,25.347-41.489,30.498-66.947,45.254c-26.651-15.448-64.992-33.094-79.988-60.035
	c-13.653-24.529-5.173-57.585-5.173-87.648c0-0.352,0-0.717,0-1.069C195.911,155.215,224.994,131.457,256.006,131.457z"/>
<path style="fill:#279FC9;" d="M426.578,317.518c0,0.352,0,0.717,0,1.069c-25.053,14.463-54.135,22.744-85.149,22.744
	c-31.131,0-60.304-8.334-85.422-22.901c50.915-29.513,85.161-84.601,85.161-147.683c0-0.352,0-0.717,0-1.069
	C392.225,199.166,426.578,254.331,426.578,317.518z"/>
<path style="fill:#EDBB4C;" d="M170.845,170.748c0,63.082,34.248,118.17,85.161,147.683c-25.118,14.567-54.292,22.901-85.422,22.901
	c-31.013,0-60.096-8.282-85.161-22.744c0-0.352,0-0.717,0-1.069c0-63.199,34.365-118.366,85.422-147.839
	C170.845,170.03,170.845,170.396,170.845,170.748z"/>
<path style="fill:#EF4152;" d="M341.168,169.678c-25.066-14.463-54.149-22.744-85.161-22.744s-60.096,8.282-85.161,22.744
	c0.392-62.638,34.534-117.269,85.161-146.613C306.634,52.408,340.776,107.039,341.168,169.678z"/>
<g>
</g>
<g>
</g>
<g>
</g>
<g>
</g>
<g>
</g>
<g>
</g>
<g>
</g>
<g>
</g>
<g>
</g>
<g>
</g>
<g>
</g>
<g>
</g>
<g>
</g>
<g>
</g>
<g>
</g>
</svg>
