<?xml version="1.0" encoding="iso-8859-1"?>
<!-- Generator: Adobe Illustrator 19.0.0, SVG Export Plug-In . SVG Version: 6.00 Build 0)  -->
<svg version="1.1" id="Capa_1" xmlns="http://www.w3.org/2000/svg" xmlns:xlink="http://www.w3.org/1999/xlink" x="0px" y="0px"
	 viewBox="0 0 512 512" style="enable-background:new 0 0 512 512;" xml:space="preserve">
<path style="fill:#5C5E70;" d="M512,256c0,17.941-1.849,35.464-5.371,52.36c-1.985,9.634-4.535,19.059-7.586,28.254
	C465.272,438.502,369.215,512,256,512C114.615,512,0,397.385,0,256c0-5.214,0.157-10.397,0.47-15.527
	c0.951-15.809,3.323-31.232,7.011-46.143c4.618-18.651,11.274-36.498,19.728-53.29c12.727-25.276,29.508-48.149,49.507-67.772
	c22.695-22.277,49.528-40.354,79.245-52.976h0.01C186.702,7.231,220.505,0,256,0c54.366,0,104.761,16.948,146.213,45.84
	c45.923,32.005,80.854,78.681,98.011,133.235c6.165,19.56,10.031,40.124,11.306,61.398C511.843,245.603,512,250.786,512,256z"/>
<path style="fill:#EF4152;" d="M173.168,169.236c0,0-48.045,18.565-47.235,81.24c0.107,8.208,9.439,12.67,16.074,7.84
	c9.772-7.115,25.604-11.684,49.843-1.5"/>
<g>
	<path style="fill:#FF525D;" d="M338.826,169.236c0,0,48.045,18.565,47.235,81.24c-0.107,8.208-9.439,12.67-16.074,7.84
		c-9.772-7.115-25.604-11.684-49.843-1.5"/>
	<path style="fill:#FF525D;" d="M292.566,269.866h-73.14c-4.4,0-7.768-3.916-7.108-8.266l9.196-60.697h68.963l9.196,60.697
		C300.334,265.95,296.966,269.866,292.566,269.866z"/>
</g>
<path style="fill:#F9EED7;" d="M255.997,234.606c24.219,0,46.483,8.312,64.147,22.208c11.992-26.739,18.682-56.374,18.682-87.578
	c0-68.802-32.429-130.024-82.829-169.235c-50.4,39.211-82.829,100.432-82.829,169.235c0,31.204,6.689,60.839,18.682,87.578
	C209.514,242.918,231.777,234.606,255.997,234.606z"/>
<path style="fill:#E8DBC4;" d="M213.301,169.232c0,25.234,2.257,49.434,6.384,71.91c-10.125,3.783-19.498,9.112-27.836,15.673
	c-11.985-26.739-18.683-56.372-18.683-87.583c0-68.796,32.434-130.017,82.829-169.232
	C230.02,39.215,213.301,100.436,213.301,169.232z"/>
<circle style="fill:#FF525D;" cx="256" cy="126.715" r="45.976"/>
<circle style="fill:#5C5E70;" cx="256" cy="126.715" r="28.484"/>
<path style="fill:#34ABE0;" d="M512,256c0,26.352-3.981,51.775-11.368,75.692C468.344,436.13,371.033,512,256,512
	S43.645,436.12,11.368,331.682C3.981,307.764,0,282.342,0,256c0-5.214,0.157-10.397,0.47-15.527
	c7.628-3.605,16.154-5.611,25.151-5.611c32.601,0,59.037,26.425,59.037,59.037c0,6.635-1.108,12.999-3.124,18.954
	c17.784,3.208,31.284,18.756,31.284,37.47c0,1.849-0.136,3.668-0.397,5.444c3.041-0.491,6.154-0.742,9.331-0.742
	c7.534,0,14.733,1.421,21.358,4.002c10.71-22.455,33.614-37.961,60.144-37.961c21.473,0,40.563,10.177,52.746,25.945
	c12.184-15.768,31.263-25.945,52.746-25.945c26.52,0,49.424,15.506,60.144,37.961c6.625-2.581,13.814-4.002,21.358-4.002
	c3.166,0,6.28,0.251,9.32,0.742c-0.251-1.776-0.397-3.594-0.397-5.444c0-18.714,13.5-34.262,31.295-37.47
	c-2.017-5.956-3.135-12.319-3.135-18.954c0-32.611,26.436-59.037,59.047-59.037c8.997,0,17.523,2.017,25.151,5.611
	C511.843,245.603,512,250.786,512,256z"/>
<path style="fill:#279FC9;" d="M500.632,331.692C468.344,436.13,371.033,512,256,512S43.645,436.12,11.368,331.682
	c4.566-1.139,9.341-1.735,14.252-1.735c32.601,0,59.037,26.425,59.037,59.037c0,6.635-1.108,12.999-3.124,18.954
	c17.784,3.208,31.284,18.756,31.284,37.47c0,1.849-0.136,3.668-0.397,5.444c3.041-0.491,6.154-0.742,9.331-0.742
	c7.534,0,14.733,1.421,21.358,4.002c10.71-22.455,33.614-37.961,60.144-37.961c21.473,0,40.563,10.177,52.746,25.945
	c12.184-15.767,31.263-25.945,52.746-25.945c26.52,0,49.424,15.506,60.144,37.961c6.625-2.581,13.814-4.002,21.358-4.002
	c3.166,0,6.28,0.251,9.32,0.742c-0.251-1.776-0.397-3.594-0.397-5.444c0-18.714,13.5-34.262,31.295-37.47
	c-2.017-5.956-3.135-12.319-3.135-18.954c0-32.611,26.436-59.037,59.047-59.037C491.29,329.947,496.065,330.553,500.632,331.692z"/>
<rect x="233.535" y="285.017" style="fill:#34ABE0;" width="44.931" height="76.8"/>
<g>
	<circle style="fill:#797B89;" cx="270.064" cy="130.779" r="11.009"/>
	<circle style="fill:#797B89;" cx="255.551" cy="113.403" r="7.183"/>
</g>
<g>
	<path style="fill:#FFD15C;" d="M448.015,148.135H434.27c-6.7,0-12.13-5.431-12.13-12.13V122.26c0-3.002-2.194-5.682-5.183-5.966
		c-3.427-0.327-6.311,2.359-6.311,5.72v13.992c0,6.7-5.431,12.13-12.13,12.13h-13.745c-3.002,0-5.682,2.194-5.966,5.183
		c-0.327,3.427,2.359,6.311,5.72,6.311h13.992c6.7,0,12.13,5.431,12.13,12.13v13.745c0,3.002,2.194,5.682,5.183,5.966
		c3.427,0.327,6.311-2.359,6.311-5.72v-13.992c0-6.7,5.431-12.13,12.13-12.13h13.99c3.36,0,6.047-2.884,5.72-6.311
		C453.697,150.329,451.016,148.135,448.015,148.135z"/>
	<path style="fill:#FFD15C;" d="M117.827,73.834h-13.746c-6.699,0-12.13-5.431-12.13-12.131V47.958c0-3.002-2.194-5.682-5.183-5.966
		c-3.427-0.327-6.311,2.359-6.311,5.72v13.992c0,6.7-5.431,12.13-12.13,12.13H54.581c-3.002,0-5.682,2.194-5.966,5.183
		c-0.327,3.427,2.359,6.311,5.72,6.311h13.992c6.699,0,12.13,5.43,12.13,12.13v13.745c0,3.002,2.194,5.682,5.183,5.966
		c3.427,0.327,6.311-2.359,6.311-5.72V97.458c0-6.7,5.431-12.13,12.13-12.13h13.992c3.36,0,6.047-2.884,5.72-6.311
		C123.509,76.028,120.828,73.834,117.827,73.834z"/>
	<path style="fill:#FFD15C;" d="M155.505,304.639h-10.139c-4.941,0-8.947-4.006-8.947-8.947v-10.139
		c0-2.214-1.619-4.191-3.823-4.401c-2.529-0.241-4.655,1.741-4.655,4.219v10.32c0,4.941-4.006,8.947-8.947,8.947h-10.139
		c-2.214,0-4.191,1.619-4.401,3.823c-0.241,2.529,1.741,4.655,4.219,4.655h10.32c4.941,0,8.947,4.006,8.947,8.947v10.139
		c0,2.214,1.619,4.191,3.822,4.401c2.529,0.241,4.655-1.741,4.655-4.219v-10.32c0-4.941,4.006-8.947,8.947-8.947h10.32
		c2.478,0,4.461-2.127,4.219-4.655C159.697,306.258,157.719,304.639,155.505,304.639z"/>
</g>
<g>
</g>
<g>
</g>
<g>
</g>
<g>
</g>
<g>
</g>
<g>
</g>
<g>
</g>
<g>
</g>
<g>
</g>
<g>
</g>
<g>
</g>
<g>
</g>
<g>
</g>
<g>
</g>
<g>
</g>
</svg>
